<?xml version="1.0" encoding="utf-8"?>
<!-- Generator: Adobe Illustrator 22.1.0, SVG Export Plug-In . SVG Version: 6.00 Build 0)  -->
<svg version="1.1" id="Layer_1" xmlns="http://www.w3.org/2000/svg" xmlns:xlink="http://www.w3.org/1999/xlink" x="0px" y="0px"
	 viewBox="0 0 1200 1200" style="enable-background:new 0 0 1200 1200;" xml:space="preserve">
<style type="text/css">
	.st0{fill:#FFF0E7;stroke:#7D5C51;stroke-width:7.48;stroke-miterlimit:10;}
	.st1{fill:#F19C20;}
	.st2{fill:#2C150C;}
	.st3{opacity:0.3;fill:#352C16;enable-background:new    ;}
	.st4{fill:#7CC193;stroke:#458259;stroke-width:3.74;stroke-miterlimit:10;}
	.st5{fill:#7E5D52;}
	.st6{fill:#FBCECF;}
	.st7{fill:#EE495D;stroke:#B72B43;stroke-width:3.74;stroke-miterlimit:10;}
	.st8{fill:#FEC20F;stroke:#E1A225;stroke-width:7.48;stroke-miterlimit:10;}
	.st9{fill:#FEC20F;}
	.st10{fill:#FFF0E7;stroke:#7D5C51;stroke-width:8.28;stroke-miterlimit:10;}
	.st11{fill:#CEB2A3;}
	.st12{fill:#5A3913;}
	.st13{fill:#EE495D;}
	.st14{opacity:0.8;fill:#F8B4B6;enable-background:new    ;}
	.st15{fill:#941B1F;}
	.st16{fill:#E7BFAF;}
</style>
<title>kitty</title>
<path id="_Path_" class="st0" d="M863.3,916.9c-1.6,10.2-3.9,20.2-6.7,30.1c-14.9,53.8-47,104.3-113.2,132.2
	c-36.4,15.4-83.1,24-143,22.5H599c-68.2,1.7-120.1-11.6-159.5-34c-0.7-0.3-1.4-0.7-2-1.1c-52.3-30.4-82.1-77.4-98.5-127
	c-0.5-1.2-0.8-2.4-1.3-3.6c-2.6-8.1-4.8-16.1-6.7-24.2c-0.3-1.3-0.7-2.5-0.9-3.7c-11.4-50.2-11.4-100.2-9.2-136.5
	c0-1.2,0.1-2.3,0.2-3.4c0-0.2,0-0.4,0.1-0.7c0.5-6.3,3.3-12.5,7.4-18.6c20-29.2,74-58.7,96.5-113.1c5-11.7,8.1-24.1,9.4-36.8
	c1.7-15.9,78.4-52.4,165.4-54.3c86.9,1.8,163.7,38.4,165.4,54.3c7.9,76.1,68.6,131.6,92.3,172.8c5.4,9.3,8.9,18,9.4,25.8
	C869,830.9,870.5,873.9,863.3,916.9z"/>
<path id="_Path_2" class="st0" d="M277.8,646.3c0,41.4,47.3,48.2,79.5,75c11.3,9.4,74-67.1,74-108.5c0-26.8-44.3-41.5-84.6-59.9
	C307.5,534.9,277.8,604.9,277.8,646.3z"/>
<path id="_Path_3" class="st0" d="M999.7,380.8c-2.7,18.5-20.4,35.5-37.4,48.8c-36.2,28.3-42.6,59.7-39.5,99s62.3,147.6,30.1,236.1
	c-8.1,22.3-50.9,70.7-60.3,77.7l-26-41c18.7-17.6,48.4-59.1,48.4-97.6c0-69.5-33.2-119.5-53.9-169.4c-1.7-4.1-3.3-8.1-4.8-12.2
	c-16-43.5-20-87.9,18-146.1c0.2-0.3,0.3-0.6,0.5-0.8s0.3-0.5,0.5-0.8C915.9,313.3,1005.9,336.8,999.7,380.8z"/>
<path id="_Path_4" class="st1" d="M846.3,454.7c30,16.5,67.8,5.6,84.4-24.5c15.7-28.6,6.7-64.5-20.8-82.2
	c-13.7,6.5-25.3,16.6-33.6,29.3C857.4,406,848.5,431.3,846.3,454.7z"/>
<path id="_Path_5" class="st2" d="M862.8,436.6c-3.9,0-7.9-0.5-11.7-1.5c3.8-18.6,12.2-37.6,25.6-57.8c4.8-7.3,11-13.7,18.2-18.6
	c17.9,17.7,18,46.5,0.3,64.4C886.6,431.7,874.9,436.6,862.8,436.6L862.8,436.6z"/>
<path id="_Compound_Path_" class="st3" d="M810.1,665.2L810.1,665.2c0-0.1,0-0.1,0-0.2V665.2z"/>
<path id="_Compound_Path_2" class="st0" d="M885.6,670.8c-3.6-25.1-28.2-61.3-59.7-92.9c-3.6-3.7-7.2-7.1-11-10.5
	c-1.4-1.4-2.9-2.7-4.4-4.1l-10.9-2.2c-4.8-5.7-7.8,0-13.6,0c-15.2,0-31,16.8-35.6,44.6c-0.8,5.4-1.2,10.8-1.2,16.2
	c0,1.4,0.1,2.9,0.2,4.3c1.7,16.8,12.6,33.6,23.2,41.2c-3.6,2.9-17.2,14-20.7,17.4c-12.5,12.5-60.3,72.5-60.3,72.5l94.5,82.3
	c4.6-3.1,12.3-11.1,21.4-21.8c4.8-5.7,10.1-12,15.4-18.8c15.8-19.8,32.2-42.5,41.5-57.8c1.5-2.4,2.8-4.6,3.8-6.6
	c2.9-5.4,5.5-10.2,7.6-14.6C885.6,700.1,889,694.7,885.6,670.8z"/>
<path id="_Path_6" class="st4" d="M431.3,632.4c0,52.9,70,153,158.9,153s160.8-100.2,160.8-153s-72-38.4-160.8-38.4
	S431.3,579.5,431.3,632.4z"/>
<path id="_Path_7" class="st0" d="M405.4,878.6l-137,34.9c0,0-4.3-46-4.7-75c-0.1-8.5,0.2-15.5,1-19.5c0.1-0.5,0.2-0.9,0.3-1.3
	c2.7-13.1,10-38.5,34.1-52.4c6.8-4,14.2-6.7,21.9-8c5.9-1.1,11.9-1.7,18-1.7C419.1,755.6,402.3,860.9,405.4,878.6z"/>
<g id="_Group_2">
	<path id="_Path_8" class="st0" d="M328.7,1101.6c-21.9-10.5-47.6-47.1-67.1-79.3c-17.3-28.9-29.6-54.3-29.6-54.3L409.3,895l1.5-0.6
		c0.3,1.4,0.7,3.2,1.1,5.3c1.2,5.4,2.8,13,4.8,21.5c6.6,29.8,16.1,72.3,18,84.8C447.1,1089.6,370.2,1121.3,328.7,1101.6z"/>
</g>
<path id="_Path_9" class="st1" d="M325.6,827c-18,22.7-42.4,20.4-59.8,14.4c-0.1-8.5,0.2-15.5,1-19.5c0.1-0.4,0.2-0.8,0.3-1.3
	c11.5,5.1,27.9,7.1,40-8.2c15.4-19.5,5.5-35.5-5.9-44.3c6.8-4,14.2-6.7,21.9-8C340.3,778.2,341.7,806.7,325.6,827z"/>
<path id="_Path_10" class="st5" d="M307.2,812.3c-12.1,15.2-28.5,13.2-40,8.2c2.8-13.1,10-38.6,34.1-52.4
	C312.7,776.9,322.6,792.8,307.2,812.3z"/>
<path id="_Path_11" class="st6" d="M307.4,1024.3c10.8,28,39,43.3,63,34.1s34.8-39.4,24.1-67.5s-39-43.3-63-34
	S296.6,996.2,307.4,1024.3z"/>
<path id="_Path_12" class="st0" d="M208.7,957.2c0,27,19.9,48.8,44.3,48.8s44.4-21.9,44.4-48.8s-19.9-48.8-44.4-48.8
	S208.7,930.2,208.7,957.2z"/>
<path id="_Path_13" class="st0" d="M338.4,902.7c0,24.6,18.1,44.6,40.5,44.6s40.5-20,40.5-44.6s-18.1-44.6-40.5-44.6
	S338.4,878.1,338.4,902.7z"/>
<path id="_Path_14" class="st0" d="M266.8,920.8c0,27,19.9,48.8,44.4,48.8s44.4-21.9,44.4-48.8S335.6,872,311.1,872
	S266.8,893.8,266.8,920.8z"/>
<path id="_Path_15" class="st0" d="M768,894.4c-3.7,17.7-21.3,94.1-23.9,111.6c-12.5,83.6,64.4,115.3,106,95.6
	s96.6-133.6,96.6-133.6L768,894.4z"/>
<path id="_Path_16" class="st1" d="M873.3,718.8c-2.1,4.4-4.7,9.2-7.6,14.6c-1.1,2-2.3,4.2-3.8,6.6c-9.3,15.4-25.7,38-41.5,57.8
	c-5.3,6.7-10.5,13.1-15.4,18.8c-7.2-4.2-13.9-9.2-20-14.9c-23.8-21.9-24.9-59.4-2.7-83.6C816.2,681.4,861.6,710.2,873.3,718.8z"/>
<path id="_Path_17" class="st5" d="M861.9,740c-9.3,15.4-25.7,38-41.5,57.8c-12.9-4.4-46.2-30.7-18-61.2
	C824.3,712.8,853.5,731,861.9,740z"/>
<path id="_Path_18" class="st0" d="M910.4,913.5L776,882.3c0,0,1.7-27.7,3.5-39.1s1.3-77.5,56.8-87.6h3.4c1.2,0,2.3,0,3.5,0.1
	c6,0.1,12,0.9,17.9,2.3c27,6.4,40.1,24.7,46.8,40.7c0.1,0.3,0.3,0.6,0.3,0.8c2.5,6.3,4.5,12.8,5.7,19.5c0.1,0.4,0.2,0.9,0.3,1.4
	c0.1,0.1,0.1,0.2,0,0.3C917.2,841,910.4,913.5,910.4,913.5z"/>
<path id="_Path_19" class="st7" d="M754.4,602.1V602c-46.9,21.8-103.9,33.7-165,32h-0.5c-61.1,1.7-118.1-10.2-165-32v0.1
	c-1.4,7.8,0.9,16.7,5.2,19.9c52,38.3,106.2,56.7,159.8,55.5h0.5c53.6,1.3,107.8-17.2,159.7-55.5
	C753.5,618.8,755.8,609.9,754.4,602.1z"/>
<path id="_Path_20" class="st1" d="M912.3,823.5c0.1,0.2,0,0.2,0,0.2c-21.1,15.5-46.6,12.9-66.1-7.9c-21.5-23-14.4-41-4.9-57.1
	c6,0.1,12,0.9,17.9,2.3c-0.3,0.5-0.7,1.1-1,1.7c-5.4,10.3-7.1,24,5.2,37.2c18.2,19.5,32.8,12.5,42.5,1.9c0.1,0.3,0.2,0.5,0.3,0.8
	c2.5,6.3,4.5,12.8,5.7,19.5C912.1,822.5,912.2,823,912.3,823.5z"/>
<path id="_Path_21" class="st5" d="M906.3,802.5c-9.1,9.7-27.2,17-44.5-1.5c-12.4-13.2-9.4-27.8-3.6-38.4c0.3-0.6,0.7-1.2,1-1.7
	c27,6.4,40.1,24.7,46.8,40.7C906.1,802,906.2,802.3,906.3,802.5z"/>
<path id="_Path_22" class="st8" d="M627,696.6c0,20.7-16.7,37.4-37.4,37.4s-37.4-16.7-37.4-37.4c0-20.7,16.7-37.4,37.4-37.4
	S627,675.9,627,696.6C627,696.6,627,696.6,627,696.6z"/>
<path id="_Path_23" class="st9" d="M589.5,727.3c-17,0-30.8-13.8-30.8-30.8s13.8-30.8,30.8-30.8c17,0,30.8,13.8,30.8,30.8
	c0,0,0,0,0,0C620.3,713.6,606.5,727.3,589.5,727.3z"/>
<path id="_Path_24" class="st9" d="M459.6,625.1c0,3.6-2.9,6.6-6.5,6.6c-3.6,0-6.6-2.9-6.6-6.5s2.9-6.6,6.5-6.6c0,0,0,0,0,0
	C456.6,618.6,459.6,621.5,459.6,625.1z"/>
<path id="_Path_25" class="st9" d="M503.2,641.7c0,4.3-3.5,7.8-7.8,7.8s-7.8-3.5-7.8-7.8s3.5-7.8,7.8-7.8c0,0,0,0,0,0
	C499.8,633.9,503.2,637.4,503.2,641.7C503.2,641.7,503.2,641.7,503.2,641.7z"/>
<path id="_Path_26" class="st9" d="M548.3,653.3c0,4.3-3.5,7.8-7.8,7.8s-7.8-3.5-7.8-7.8s3.5-7.8,7.8-7.8c0,0,0,0,0,0
	C544.9,645.5,548.3,649,548.3,653.3C548.3,653.3,548.3,653.3,548.3,653.3z"/>
<path id="_Path_27" class="st9" d="M718.7,625.1c0,3.6,2.9,6.6,6.5,6.6c3.6,0,6.6-2.9,6.6-6.5c0-3.6-2.9-6.6-6.5-6.6
	C721.6,618.5,718.7,621.5,718.7,625.1z"/>
<path id="_Path_28" class="st9" d="M675,641.7c0,4.3,3.5,7.8,7.8,7.8c4.3,0,7.8-3.5,7.8-7.8c0-4.3-3.5-7.8-7.7-7.8
	S675,637.4,675,641.7C675,641.7,675,641.7,675,641.7z"/>
<path id="_Path_29" class="st9" d="M629.9,653.3c0,4.3,3.5,7.8,7.8,7.8s7.8-3.5,7.8-7.8s-3.5-7.8-7.8-7.8S629.9,649,629.9,653.3
	L629.9,653.3z"/>
<path id="_Path_30" class="st6" d="M872,1024.3c-10.8,28-39,43.3-63,34.1s-34.8-39.4-24.1-67.5s39-43.3,63-34.1
	S882.8,996.2,872,1024.3z"/>
<path id="_Path_31" class="st0" d="M970.3,957c0,27-19.9,48.8-44.4,48.8S881.6,984,881.6,957s19.8-48.8,44.3-48.8
	S970.3,930.1,970.3,957z"/>
<path id="_Path_32" class="st0" d="M840.7,902.6c0,24.6-18.2,44.6-40.5,44.6s-40.5-20-40.5-44.6s18.1-44.6,40.5-44.6
	S840.7,878,840.7,902.6z"/>
<path id="_Path_33" class="st0" d="M912.3,920.7c0,27-19.8,48.8-44.3,48.8s-44.4-21.9-44.4-48.8s19.8-48.8,44.4-48.8
	S912.3,893.7,912.3,920.7z"/>
<path id="_Path_34" class="st10" d="M911.1,427.2c0,3.9-0.2,7.6-0.4,11.4c-2,25.3-10.9,49.4-25.2,71.5
	c-11.7,18.1-27.2,34.9-45.8,49.9c-20.3,16.5-44.4,30.8-71.3,42.5c-49.3,21.4-108,33.8-171.3,33.8c-3.2,0-6.3-0.1-9.6-0.1V636
	c-3,0.1-6.2,0.2-9.2,0.2c-59.9,0-115.9-11.2-163.5-30.5c-39.7-16.2-73.6-38.1-99.1-64c-29.6-30-47.9-65.3-50.9-103.2
	c-0.3-3.8-0.5-7.5-0.5-11.4c0-14.1,2.2-28.2,6.3-41.7c0.2-0.8,0.5-1.6,0.7-2.4c-0.5-13.3-2.1-53.3-2.4-91.6
	c-0.3-30.1,0.3-59.1,2.6-73.4c5.9-36.5,5.1-107.3,35.9-121.9c37-17.6,104.9,40.3,132,65.5s63.1,62.4,63.1,62.4
	c-0.1,0.1-0.3,0.2-0.4,0.3c1-0.2,1.9-0.4,2.9-0.5c2.5-0.5,5-0.8,7.5-1.1c5.8-0.9,11.7-1.6,17.7-2.2c2-0.2,4.2-0.5,6.5-0.6
	c15.6-1.3,36.9-1.8,51.1-1.8v0.1c13.5,0.1,33.2,0.6,48.4,1.7c3.2,0.2,6.2,0.4,8.9,0.7c5.8,0.6,11.5,1.3,17.1,2.1
	c2.8,0.4,5.4,0.7,8.1,1.2c1,0.1,1.9,0.3,2.9,0.5c-0.1-0.1-0.2-0.2-0.4-0.3c0,0,35.8-37.3,63.1-62.4s95-83,132-65.4
	c30.8,14.6,30,85.4,35.9,121.9c2.2,13.6,2.8,40.4,2.6,68.8v3.5c-0.1,20.3-0.7,41.1-1.1,58.2c-0.6,15.5-1,28.1-1.3,34.6
	c0.3,0.8,0.5,1.6,0.7,2.4C908.9,398.9,911.1,413,911.1,427.2z"/>
<g id="_Group_3">
	<path id="_Path_35" class="st11" d="M777.9,365.4l-5.6,0.5c-3.5,0.4-8.7,0.6-14.7,1.6l-9.6,1.7c-3.4,0.5-7,1.5-10.7,2.4
		c-3.8,0.8-7.5,1.9-11.2,3.2c-3.9,1.2-7.6,2.6-11.2,4.4c-3.7,1.6-7.2,3.5-10.6,5.8c-3.4,2.1-6.4,4.5-9.4,6.8s-5.7,4.6-8.1,7.1
		c-2.4,2.3-4.6,4.7-6.6,7.3c-3.2,4.1-6,8.4-8.4,13c-1.8,3.5-3,5.6-3,5.6l-0.8-0.4c0,0,0.2-2.3,0.8-6.5c0.9-5.8,2.7-11.5,5.5-16.7
		c1.8-3.4,3.9-6.7,6.4-9.6c2.6-3.3,5.6-6.2,8.9-8.8c3.5-2.4,7.1-4.9,11-6.6c3.8-1.9,7.8-3.5,11.9-4.8c3.9-1.5,8-2.6,12.1-3.5
		c3.9-1,7.8-1.8,11.8-2.2c3.9-0.5,7.5-1.3,11.1-1.3l10-0.4c6.2-0.2,11.2,0.3,14.8,0.3l5.6,0.2L777.9,365.4z"/>
</g>
<path id="_Path_36" class="st6" d="M342.1,279.6c-12.9,5.1-27.6-1.2-32.7-14.1c-1.3-3.3-1.9-6.9-1.8-10.5
	c2.3-50.3,9.2-125.8,21.3-130.5c8-3.2,65,46.5,98.2,76.9c10.3,9.4,11,25.3,1.6,35.6c-1.8,1.9-3.9,3.6-6.1,4.9
	C399.1,255.2,367.7,269.4,342.1,279.6z"/>
<path id="_Path_37" class="st6" d="M841.2,282.5c10.3,4,22-1.1,26-11.5c1-2.5,1.4-5.2,1.3-7.9c-1.8-49.8-8.9-133.6-21.6-138.6
	c-8.5-3.4-71.5,52.1-103.4,81.7c-8.1,7.5-8.7,20.1-1.2,28.3c1.3,1.4,2.8,2.6,4.4,3.6C772.9,253.8,812.1,271.4,841.2,282.5z"/>
<g id="_Group_4">
	<g id="_Group_5">
		<g id="_Group_6">
			<path id="_Path_38" class="st12" d="M777,363.4l-5.6,0.3L765,364c-2.5,0.2-5.3,0.2-8.3,0.6l-9.7,1.2c-3.5,0.3-7.1,1.2-10.8,1.8
				l-5.7,1l-5.7,1.5l-5.8,1.6l-5.7,2c-3.8,1.3-7.4,2.9-10.9,4.8c-1.8,0.8-3.4,1.8-5.1,2.9c-1.6,1-3.3,1.9-4.8,3l-4.4,3.2
				c-1.4,1-2.6,2.3-4,3.4c-1.3,1-2.4,2.2-3.5,3.5c-1.1,1.1-2.1,2.3-3,3.5c-0.8,1.2-1.8,2.3-2.6,3.4l-2.1,3.2c-1.2,2.1-2.2,4-2.9,5.6
				s-1.3,2.9-1.7,3.8l-0.7,1.3l-0.4-0.2c0,0,0.5-2,1.4-5.4c0.6-2.1,1.3-4.2,2.2-6.2c1.2-2.6,2.5-5.1,4.1-7.5c0.9-1.4,1.9-2.7,3-3.9
				c1.1-1.4,2.2-2.7,3.5-3.9c2.7-2.7,5.6-5.1,8.7-7.3c1.6-1.1,3.4-2,5.1-3c1.7-1.1,3.5-2,5.4-2.8l5.7-2.4c1.9-0.8,3.9-1.3,5.9-2
				l5.9-1.9l6-1.4l5.9-1.3l5.8-0.9c3.8-0.5,7.5-1.3,11-1.4l9.9-0.7c3.1-0.3,5.9-0.2,8.3-0.2h6.4h5.6L777,363.4z"/>
			<path id="_Compound_Path_3" class="st5" d="M777,363.4l-11.7,1c-3.8,0.4-7.8,0.7-11.6,1.3l-5.8,0.9l-2.9,0.4l-2.8,0.5l-11.5,2.3
				h0.1l-11.4,3.3h0.1l-6.8,2.6c-2.2,0.9-4.3,1.8-6.4,2.9c-2.1,1-4.2,2.2-6.3,3.4l-1.6,0.9l-0.2,0.1l0,0l0,0l0.2-0.1l0,0l-0.1,0.1
				l-0.4,0.2l-0.8,0.5l-3,1.9c-1,0.6-1.9,1.4-2.9,2.1c-1,0.7-1.9,1.4-2.8,2.2l-2.7,2.4l-2.4,2.4l-1.1,1.1l-1.2,1.4l-1.2,1.4
				c-0.2,0.2-0.5,0.6-0.5,0.6l-0.5,0.7l-2.1,2.9l-1.9,3l0.1-0.1l-2.7,5.2l-0.2,0.4l-0.2,0.3l-0.3,0.7l-0.6,1.4
				c-0.4,0.9-0.8,1.8-1.3,2.7l-0.9,1.8l-1.8-0.8l-0.4-0.2l-1.6-0.7l0.4-1.6l1.3-5.1l0.1-0.3l0.1-0.4l0.2-0.6l0.4-1.2l0.9-2.4
				l0.4-1.2l0.1-0.3l0-0.1l0.1-0.3v-0.1l0.3-0.6l1.2-2.4c0.8-1.6,1.8-3.2,2.8-4.7l-0.1,0.1l1.6-2.1l0.8-1.1l0.4-0.5l0.2-0.3l0.3-0.4
				l3.4-3.8l0,0c2.5-2.6,5.3-4.9,8.3-7l0.5-0.4l0.1-0.1l0.2-0.1l0.3-0.2l1.1-0.7l2.3-1.3l1.1-0.7l0.5-0.3l0.3-0.1l0.6-0.3l2.3-1.2
				l2.4-1.2l2.4-1l2.4-1c0.8-0.4,1.7-0.6,2.5-0.9l5.1-1.6l5-1.5h0.1l0,0l11.9-2.5h0.1l11.7-1.5c1-0.1,2-0.2,3-0.3s2-0.1,3-0.1
				l5.9-0.2c3.9-0.2,7.9-0.1,11.8-0.1L777,363l0,0L777,363.4z M777,363.4V363l0,0l-11.8,0.5c-3.9,0.2-7.8,0.3-11.8,0.8l-5.9,0.6
				c-2,0.1-3.8,0.4-5.8,0.7l-11.7,1.9h0.1l-11.8,2.9h0.1l-5,1.7l-4.8,1.7c-0.9,0.3-1.6,0.5-2.4,0.9l-2.4,1.1l-2.4,1l-2.3,1.2
				L697,379l-0.6,0.3l-0.3,0.1l0,0l0.2-0.1l0,0h-0.1l-0.1,0.1l-1.1,0.7l-2.3,1.4l-1.1,0.7l-0.3,0.2l-0.1,0c0,0-0.1,0.1,0,0l0,0
				l-0.1,0.1l-0.5,0.4c-2.8,1.9-5.3,4.1-7.7,6.6l0,0l-3.3,3.8l-2.8,3.8l-0.1,0.1c-0.9,1.4-1.8,2.8-2.5,4.2l-1.1,2.3l-0.3,0.6v0.1
				l0,0l0,0c-0.1,0.2,0.1-0.3,0.1-0.2l0,0v0.1l-0.1,0.3l-0.4,1.2l-0.8,2.5l-0.4,1.2l-0.2,0.6l0,0.1l0,0l0,0c0.1-0.2,0,0,0-0.1l0,0
				v0.1l-0.1,0.3l-1.3,5l-1.2-2.4l0.4,0.2l-2.7,1c0.5-0.9,0.9-1.8,1.3-2.7l0.6-1.4l0.3-0.7l0.2-0.3l0.1-0.3l2.9-5.4v-0.1l0-0.1l2-3
				l2.2-2.9l0.5-0.7l0.7-0.8l1.2-1.4l1.2-1.4l0.3-0.3l0.1-0.1l0.2-0.2l0.3-0.3l0.7-0.6c0.9-0.9,1.6-1.6,2.8-2.6l2.8-2.3
				c0.9-0.8,1.9-1.5,2.9-2.2c1-0.7,1.9-1.4,3-2.1l3.1-1.9l1.8-1.1l1.6-0.9c4.2-2.4,8.7-4.5,13.3-6.1l6.8-2.3h0.1l0,0l11.5-2.9h0.1
				l0,0l11.6-1.9c1-0.2,2-0.3,3-0.4l2.9-0.3l5.8-0.5c3.9-0.4,7.8-0.5,11.8-0.7L777,363.4z"/>
		</g>
	</g>
</g>
<path id="_Path_39" class="st5" d="M649.3,539.5c-0.7,1.1-1.4,2.3-2.2,3.4c-5.3,8.4-11.5,17.2-16.4,22.3
	c-31.9,33.8-63.6,17.6-83.3-0.5c-7-6.6-13.2-14-18.6-22c-1-1.5-1.7-2.7-2.2-3.5c2.1-0.5,4.2-1,6.3-1.5c5-1.4,9.9-3.1,14.6-5.3
	c4.4-2,8.8-4.1,13-6.5c3.8-2.2,7.4-4.7,10.8-7.5c2.9-2.3,5.6-4.8,8.2-7.5c1.1-1.3,2.1-2.4,3.1-3.5c0.8-1.2,1.6-2.2,2.3-3.2
	c1.5-1.9,2.3-3.6,3.1-4.7c0.4-0.7,1.5-2.5,2.2-3.8l0.1,0.1l0.8,0.9l0.3,0.5c0.8,1.7,1.6,3.4,2.7,5c0.7,1,1.4,2.1,2.2,3.4
	s1.9,2.4,2.9,3.8c2.4,2.9,5.1,5.6,8,8.1c3.4,3,6.9,5.7,10.7,8.1c4.2,2.7,8.7,5.1,13.3,7.2c4.9,2.2,9.9,4.1,15,5.6
	C647,538.9,648.1,539.2,649.3,539.5z"/>
<path id="_Path_40" class="st13" d="M630.7,565.3c-31.9,33.7-63.6,17.6-83.3-0.5c0.6-0.6,1.2-1.3,1.8-1.9
	c10.1-10,25.8-11.8,38.2-4.8l3,1.7l2.3-1.2c11.6-5.8,25.6-4.1,35.5,4.3C629.1,563.7,629.9,564.4,630.7,565.3z"/>
<g id="_Group_7">
	<path id="_Path_41" class="st5" d="M759.3,468c0,0,13.7-6,27.5-11.7c3.5-1.4,6.8-3,10.1-4.3s6.4-2.1,9.1-2.9c3-0.8,6.1-1.5,9.2-1.9
		l0.2,0.4c-2.6,1.7-5.4,3.2-8.2,4.6c-2.5,1.2-5.5,2.6-8.8,3.8s-6.9,2.2-10.4,3.3c-14.2,4.7-28.5,9-28.5,9L759.3,468z"/>
</g>
<g id="_Group_8">
	<path id="_Path_42" class="st5" d="M764.5,481.7c0,0,12.8,0.8,25.6,2c3.2,0.3,6.4,0.4,9.4,0.8c2.7,0.4,5.4,0.9,8.1,1.6
		c2.6,0.6,5.2,1.5,7.8,2.5l-0.1,0.4c-2.7,0.3-5.4,0.4-8.2,0.4c-2.7-0.1-5.5-0.3-8.2-0.6c-3-0.5-6.1-1.2-9.3-1.8
		c-12.7-2.3-25.3-4.9-25.3-4.9L764.5,481.7z"/>
</g>
<g id="_Group_9">
	<path id="_Path_43" class="st5" d="M764.5,501.6c0,0,10.5,3,21,6.3c2.6,0.8,5.3,1.5,7.7,2.3c2.2,0.8,4.3,1.8,6.4,2.9
		c2.1,1.1,4,2.3,5.9,3.7l-0.1,0.4c-2.3-0.1-4.6-0.5-6.9-1c-2.3-0.5-4.5-1.2-6.7-2c-2.4-1-4.8-2.2-7.3-3.3c-10-4.3-20-9-20-9
		L764.5,501.6z"/>
</g>
<path id="_Path_44" class="st1" d="M657.8,272c-6.9,26-50.6,38.8-72.5,38.3c-20.8-0.5-46-10.3-62.5-24.8
	c-13.5-12-7.6-39.9-10.3-59.3c5.8-0.9,11.7-1.6,17.7-2.2c2-0.2,4.2-0.5,6.5-0.6c15.6-1.3,36.9-1.8,51.1-1.8v0.1
	c13.5,0.1,33.2,0.6,48.4,1.7c3.2,0.2,6.2,0.4,8.9,0.7c5.8,0.6,11.5,1.3,17.1,2.1C662.6,237.8,662.1,256,657.8,272z"/>
<path id="_Path_45" class="st5" d="M637.4,259.6c-5,18.8-36.3,27.9-52,27.5c-14.9-0.3-33-7.4-44.9-17.8c-8.1-7.1-6-31-3.8-45.8
	c15.6-1.3,36.9-1.8,51.1-1.8v0.1c13.5,0.1,33.2,0.6,48.4,1.7C638.3,233.7,640.4,248.6,637.4,259.6z"/>
<g id="_Group_10">
	<path id="_Path_46" class="st5" d="M707.4,530.1c-2.4,5.2-6.6,9.4-11.8,11.8c-5.2,2.5-10.9,4-16.7,4.5c-5.8,0.6-11.6,0.5-17.4-0.3
		c-4.9-0.7-9.7-1.7-14.5-3.1c-0.8-0.2-1.5-0.4-2.3-0.7c-5.3-1.6-10.5-3.7-15.5-6.1c-4.7-2.2-9.1-4.9-13.3-7.9
		c-3.8-2.7-7.4-5.6-10.7-8.8c-2.8-2.7-5.4-5.7-7.7-8.9l-2.7-4c-0.7-1.3-1.4-2.6-2-3.6c-0.9-1.7-1.7-3.5-2.3-5.3l-0.7-1.9l0.4-0.2
		l0.6,1.3l0.3,0.5c0.8,1.7,1.6,3.4,2.7,5c0.7,1,1.4,2.1,2.2,3.4s1.9,2.4,2.9,3.8c2.4,2.9,5.1,5.6,8,8.2c3.4,3,6.9,5.7,10.7,8.1
		c4.2,2.7,8.7,5.1,13.3,7.2c4.9,2.2,9.9,4.1,15,5.6c1.1,0.3,2.2,0.6,3.4,0.9c4.2,1.1,8.5,1.9,12.8,2.5c5.5,0.8,11,0.9,16.5,0.5
		c5.3-0.3,10.6-1.6,15.4-3.8c4.6-2.1,8.3-5.6,10.6-10c1.9-4,2.7-8.5,2.4-13c-0.2-2-0.4-3.9-0.8-5.9c-0.4-1.9-1-3.6-1.5-5.2
		c-1-3.2-2.3-5.9-3.2-8.1c-2.3-4.3-3.5-6.8-3.5-6.8l0.3-0.2c0,0,1.6,2.3,4.2,6.5c1.1,2.2,2.6,4.9,3.9,8.1c0.6,1.7,1.3,3.4,1.9,5.3
		c0.5,2,0.9,4.1,1.2,6.2C710.1,520.5,709.4,525.5,707.4,530.1z"/>
</g>
<g id="_Group_11">
	<path id="_Path_47" class="st11" d="M404.3,364.4l5.6-0.2c3.6,0,8.7-0.5,14.8-0.3l10,0.4c3.6,0,7.3,0.8,11.1,1.3
		c4,0.4,8,1.2,11.8,2.2c4.1,0.8,8.2,2,12.1,3.5c4.1,1.3,8.1,2.9,11.9,4.8c3.9,1.7,7.5,4.3,11,6.6c3.3,2.6,6.3,5.5,8.9,8.8
		c2.5,3,4.6,6.2,6.4,9.6c2.8,5.2,4.6,10.8,5.5,16.7c0.7,4.2,0.8,6.5,0.8,6.5l-0.8,0.4c0,0-1.2-2.1-3-5.6c-2.4-4.6-5.2-8.9-8.4-13
		c-2-2.6-4.2-5-6.6-7.3c-2.4-2.5-5.3-4.7-8.1-7.1s-6-4.7-9.4-6.8c-3.4-2.2-6.9-4.1-10.6-5.7c-3.6-1.8-7.3-3.2-11.2-4.4
		c-3.7-1.4-7.4-2.4-11.2-3.2c-3.7-0.8-7.2-1.9-10.7-2.4l-9.7-1.7c-6-1-11.1-1.2-14.7-1.6l-5.6-0.5L404.3,364.4z"/>
</g>
<g id="_Group_12">
	<g id="_Group_13">
		<g id="_Group_14">
			<path id="_Path_48" class="st12" d="M403.4,363h5.6h6.4c2.5,0,5.3-0.1,8.3,0.2l9.9,0.7c3.5,0.1,7.2,0.9,11,1.4l5.8,0.9l5.9,1.3
				l6,1.4l5.9,1.9c2,0.7,4,1.2,5.9,2l5.7,2.4c1.9,0.8,3.7,1.7,5.4,2.8c1.7,1,3.5,1.9,5.1,3c3.1,2.2,6,4.6,8.7,7.3
				c1.3,1.2,2.4,2.5,3.5,3.9c1.1,1.2,2.1,2.6,3,3.9c1.6,2.4,3,4.9,4.1,7.5c0.9,2,1.6,4.1,2.2,6.2c1,3.5,1.4,5.4,1.4,5.4l-0.4,0.2
				l-0.7-1.3c-0.5-0.9-0.9-2.2-1.7-3.8s-1.8-3.5-2.9-5.6l-2.1-3.2c-0.8-1.1-1.7-2.2-2.6-3.4c-0.9-1.2-1.9-2.4-3-3.5
				c-1.1-1.3-2.3-2.4-3.5-3.5c-1.3-1.1-2.5-2.4-4-3.4l-4.4-3.2c-1.5-1.1-3.2-2-4.8-3c-1.6-1.1-3.3-2-5.1-2.9l-5.4-2.5
				c-1.8-0.9-3.7-1.5-5.6-2.2l-5.7-2l-5.8-1.6l-5.7-1.5l-5.7-1c-3.7-0.6-7.3-1.5-10.8-1.8l-9.8-1.1c-3-0.4-5.8-0.5-8.3-0.6l-6.4-0.3
				l-5.6-0.3L403.4,363z"/>
			<path id="_Compound_Path_4" class="st5" d="M403.4,363l11.8-0.4c4,0,7.9-0.1,11.9,0.1l5.9,0.2c1,0,2,0,3,0.1s2,0.2,3,0.3
				l11.7,1.5h0.1l11.9,2.5l0,0h0.1l5,1.5l5.1,1.6c0.8,0.3,1.7,0.5,2.5,0.9l2.4,1l2.4,1l2.4,1.2l2.4,1.2l0.6,0.3l0.3,0.1l0.5,0.3
				l1.1,0.7l2.3,1.3l1.1,0.7l0.3,0.2l0.2,0.1l0.1,0.1l0.5,0.4c3,2.1,5.8,4.4,8.3,7l-0.1-0.1l3.6,4l0.1,0.1l0.2,0.2l0.2,0.3l0.4,0.5
				l0.8,1l1.5,2l0,0c1,1.5,2,3.1,2.8,4.7l1.3,2.4l0.3,0.6v0.1l0.1,0.3l0.1,0.1l0.1,0.3l0.4,1.2l0.9,2.4l0.4,1.2l0.2,0.6l0.1,0.2
				l0.1,0.3l0.1,0.3l1.3,5l0.4,1.7l-1.6,0.7l-0.4,0.2l-1.8,0.8l-0.9-1.8c-0.5-0.9-0.9-1.8-1.3-2.7s-0.8-1.8-1.3-2.7l-2.7-5.3
				l0.1,0.2l-2-3l-2.1-2.9l-0.5-0.7c0,0-0.4-0.4-0.5-0.6l-1.2-1.4l-1.2-1.4l-1.1-1.1c-0.8-0.8-1.8-1.8-2.5-2.4l-2.7-2.4
				c-0.8-0.7-1.8-1.4-2.8-2.1s-1.9-1.5-2.9-2.1l-3-2l-0.8-0.5l-0.4-0.3l-0.1-0.1l0,0l0.2,0.1l0,0h0l-0.2-0.1l-1.6-0.9l-3.1-1.8
				l-3.2-1.6c-1.1-0.5-2.1-1.1-3.2-1.5l-3.3-1.4l-1.6-0.6l-1.7-0.6l-3.4-1.3h0.1l-11.4-3.3h0.1l-11.5-2.3c-1.9-0.4-3.7-0.7-5.7-0.9
				l-5.8-0.9c-3.9-0.6-7.8-0.9-11.6-1.3l-11.7-1l0,0l0,0L403.4,363z M403.4,363v0.4l0,0l11.7,0.2c3.9,0.2,7.9,0.2,11.7,0.7l5.9,0.5
				c2,0.1,3.9,0.3,5.9,0.7l11.6,1.9h0.1l11.5,2.9l0,0h0.1l3.4,1.2l1.7,0.6l1.8,0.7l3.4,1.3c1.1,0.4,2.3,0.9,3.4,1.5l3.3,1.6l3.2,1.8
				l1.6,0.9l1.8,1.1l3.1,1.9c1.1,0.7,2,1.4,3,2.1s1.9,1.3,3,2.2l2.7,2.4c1.1,1,1.8,1.7,2.7,2.6l0.6,0.6l0.3,0.3l0.2,0.1l0.1,0.1
				l0.3,0.3l1.2,1.4l1.2,1.4l0.7,0.8l0.5,0.7l2.2,2.9l2,3v0.1l0.1,0.1l2.9,5.3c0.4,0.9,0.8,1.8,1.3,2.7s0.9,1.8,1.3,2.7l-2.7-1
				l0.4-0.2l-1.2,2.4l-1.3-5l-0.1-0.3v-0.1l0,0c0,0.1,0-0.1,0,0.1l0,0l0,0l-0.1-0.1l-0.2-0.6l-0.4-1.2l-0.9-2.5l-0.4-1.2l-0.1-0.3
				l-0.1-0.1l0,0c0.2,0.5,0,0.1,0.1,0.2v0v-0.1l-0.3-0.6l-1.1-2.3c-0.7-1.5-1.5-2.9-2.5-4.2l0,0l0,0l-1.5-2l-0.8-1l-0.4-0.5
				l-0.2-0.3c0,0-0.1-0.2,0,0l-0.1-0.1l-3.1-3.6l-0.1-0.1c-2.3-2.4-4.9-4.6-7.7-6.6l-0.5-0.4l-0.1-0.1l0,0h0.1h-0.1l-0.3-0.2
				l-1.1-0.7l-2.3-1.4l-1.1-0.7l-0.1-0.1l-0.1,0l0,0l0.2,0.1l0,0l-0.3-0.1l-0.6-0.3l-2.3-1.2l-2.3-1.2l-2.4-1l-2.4-1.1
				c-0.8-0.4-1.6-0.7-2.4-0.9l-4.9-1.7l-5-1.7h0.1l-11.8-2.9h0.1l-11.7-1.9l-2.9-0.4c-0.9-0.1-1.9-0.2-2.9-0.3l-5.9-0.6
				c-3.9-0.5-7.9-0.5-11.8-0.8L403.4,363z"/>
		</g>
	</g>
</g>
<g id="_Group_15">
	<path id="_Path_49" class="st5" d="M420.9,468.3c0,0-14.3-4.3-28.5-9c-3.5-1.1-7.1-2.2-10.4-3.3s-6.3-2.5-8.8-3.8
		c-2.8-1.3-5.6-2.9-8.2-4.6l0.1-0.4c3.1,0.4,6.2,1,9.2,1.9c2.7,0.7,5.8,1.6,9.1,2.9s6.6,2.8,10.1,4.3C407.4,461.9,421,468,421,468
		L420.9,468.3z"/>
</g>
<g id="_Group_16">
	<path id="_Path_50" class="st5" d="M416,482.1c0,0-12.6,2.6-25.3,4.9c-3.2,0.6-6.3,1.3-9.3,1.8c-2.7,0.4-5.5,0.6-8.2,0.6
		c-2.7,0.1-5.4,0-8.1-0.4l0-0.4c2.5-1,5.1-1.9,7.8-2.5c2.7-0.7,5.4-1.2,8.1-1.6c3-0.4,6.2-0.5,9.4-0.8c12.8-1.2,25.6-2,25.6-2
		L416,482.1z"/>
</g>
<g id="_Group_17">
	<path id="_Path_51" class="st5" d="M416,502c0,0-9.9,4.7-20,9c-2.5,1.1-5,2.3-7.3,3.3c-2.2,0.8-4.4,1.5-6.7,2
		c-2.3,0.5-4.6,0.9-6.9,1l-0.1-0.4c1.8-1.4,3.8-2.7,5.9-3.7c2.1-1.1,4.2-2.1,6.4-2.9c2.4-0.8,5.1-1.5,7.7-2.3
		c10.4-3.3,21-6.3,21-6.3L416,502z"/>
</g>
<g id="_Group_18">
	<path id="_Path_55" class="st5" d="M590.8,494.7l-0.5,1.3l-0.9,2.1c0,0-0.3,0.7-0.9,1.8c-0.8,1.7-1.6,3.4-2.7,5
		c-0.6,1-1.4,2.2-2.2,3.4s-1.8,2.4-2.9,3.8c-2.4,2.9-5.1,5.7-7.9,8.2c-3.4,3-6.9,5.7-10.7,8.2c-4.2,2.7-8.6,5.1-13.2,7.2
		c-4.9,2.2-9.9,4.1-15.1,5.7c-1.7,0.5-3.4,1-5.1,1.3c-3.7,1-7.4,1.7-11.1,2.1c-5.5,0.7-11.1,0.8-16.6,0.3
		c-5.4-0.5-10.7-1.9-15.6-4.3c-4.6-2.2-8.4-5.9-10.6-10.5c-1.8-4.2-2.6-8.7-2.1-13.3c0.1-2.1,0.7-4.1,0.9-5.9
		c0.5-1.9,1.1-3.6,1.5-5.2c1.1-3.2,2.4-5.9,3.3-8.2l3.5-6.8l0.4,0.2c0,0-1,2.6-2.9,7.1c-0.8,2.3-1.8,5-2.6,8.2
		c-0.3,1.7-0.8,3.4-1.1,5.1c-0.1,1.8-0.6,3.7-0.5,5.7c-0.2,4.1,0.6,8.1,2.4,11.7c1.9,3.7,5.3,6.6,9.5,8.7c4.5,2,9.3,3.3,14.3,3.6
		c5.3,0.4,10.5,0.2,15.8-0.5c3.2-0.3,6.3-0.8,9.4-1.5c2.1-0.5,4.2-1,6.3-1.5c5-1.4,9.9-3.1,14.6-5.3c4.4-2,8.8-4.1,13-6.5
		c3.8-2.2,7.4-4.7,10.8-7.5c2.9-2.3,5.6-4.8,8.2-7.5c1.1-1.3,2.1-2.4,3.1-3.5c0.8-1.2,1.6-2.2,2.3-3.2c1.5-1.9,2.3-3.6,3.1-4.7
		c0.4-0.7,1.5-2.5,2.2-3.8C590.4,495.4,590.6,495,590.8,494.7z"/>
</g>
<path id="_Compound_Path_5" class="st13" d="M614.9,460.1c-10.5-3-38.8-3-49.4,0c-13.1,3.7-14.9,13-7.9,23
	c6.9,9.8,31.6,17.2,32.6,17.5c1-0.3,25.6-7.6,32.5-17.5C629.8,473.1,628,463.8,614.9,460.1z"/>
<path id="_Path_59" class="st14" d="M571,469.5c-1.6-2.2-2.3-4.3-1.8-5.4s2.1-2.1,4.6-2.8c0.8-0.2,1.5-0.3,2.3-0.3h28
	c0.8,0,1.6,0.1,2.3,0.3c2.5,0.7,4.2,1.8,4.5,2.8s-0.3,3.2-1.8,5.4C606.4,473.4,573.7,473.4,571,469.5z"/>
<path id="_Path_60" class="st15" d="M622.7,482.7c-6.9,9.8-31.5,17.2-32.5,17.5c-1-0.3-25.6-7.6-32.6-17.5
	c-3.3-4.7-4.6-9.2-3.8-13.1c0.7,3,2,5.7,3.8,8.2c7,9.8,31.6,17.2,32.6,17.5c1-0.2,25.6-7.6,32.5-17.5c1.8-2.4,3.1-5.2,3.8-8.2
	C627.4,473.4,626.1,478,622.7,482.7z"/>
<g id="_Group_21">
	<path id="_Path_61" class="st5" d="M412.1,309c4-3.7,8.6-6.7,13.5-9c5.8-2.8,12.1-4.6,18.5-5.1c3.4-0.1,6.8-0.4,10.1,0.4
		c1.7,0.2,3.3,0.5,4.9,0.8c1.6,0.5,3.1,1,4.6,1.6c2.9,1,5.6,2.4,8.1,4.1c1.2,0.7,2.3,1.5,3.4,2.3l2.7,2.7c1.6,1.5,3.1,3.1,4.3,4.9
		c1.1,1.6,1.9,3.1,2.6,4.3c1.3,2.4,0.3,3.3-2.1,2.3c-1.2-0.5-2.7-1.1-4.2-2s-3.6-1.2-5.5-2c-2-0.8-4.1-1.5-6.2-1.9
		c-2.2-0.7-4.5-1.2-6.8-1.5c-1.2-0.1-2.3-0.4-3.5-0.6c-1.2,0-2.4,0-3.6-0.1c-2.5-0.1-5-0.1-7.4,0.1c-2.5,0.1-5,0.6-7.5,0.9
		c-2.5,0.6-5,0.9-7.5,1.6c-4.9,1.1-9.5,2.6-13.7,3.8C408.5,319.5,405.1,315.4,412.1,309z"/>
	<path id="_Path_62" class="st16" d="M426.6,302.9c5.1-2.5,10.6-4,16.2-4.5h1.7c0.9,0,1.9-0.1,2.8-0.1c1.3,0,2.6,0.1,3.9,0.3
		l0.5,0.1c1.3,0.2,2.8,0.4,4.1,0.7h0.1c1.3,0.4,2.6,0.9,3.8,1.3l0.5,0.2c1,0.3,0.3,0.7-1.2,0.6c-0.9-0.1-1.8-0.3-2.8-0.5
		c-0.4-0.1-0.9-0.1-1.4-0.1c-1,0-2.1,0-3.1-0.1c-0.8-0.1-1.7-0.1-2.6-0.1c-1.2,0-2.4,0.1-3.6,0.1l-2,0.1c-1.9,0.1-3.7,0.3-5.6,0.6
		c-0.8,0.1-1.7,0.3-2.5,0.4c-0.3,0-0.5,0.1-0.8,0.1c-0.9,0.2-1.9,0.4-2.8,0.6c-1.6,0.3-3.1,0.6-4.7,1
		C425.8,303.8,425.6,303.3,426.6,302.9z"/>
	<path id="_Path_63" class="st5" d="M769.4,309c-4-3.7-8.6-6.7-13.5-9c-5.8-2.8-12.1-4.6-18.5-5.1c-3.4-0.1-6.8-0.4-10.1,0.4
		c-1.7,0.2-3.3,0.5-4.9,0.8c-1.6,0.5-3.1,1-4.6,1.6c-2.9,1-5.6,2.4-8.1,4.1c-1.2,0.7-2.3,1.5-3.4,2.3l-2.7,2.7
		c-1.6,1.5-3.1,3.1-4.3,4.9c-1.1,1.6-1.9,3.1-2.6,4.3c-1.3,2.4-0.3,3.3,2.1,2.3c1.2-0.5,2.7-1.1,4.2-2s3.6-1.2,5.5-2
		c2-0.8,4.1-1.5,6.2-1.9c2.2-0.7,4.5-1.2,6.8-1.4c1.2-0.1,2.3-0.4,3.5-0.6c1.2,0,2.4,0,3.7-0.1c2.5-0.1,5-0.1,7.4,0.1
		c2.5,0.1,5,0.6,7.5,0.9c2.5,0.6,5,0.9,7.5,1.6c4.9,1.1,9.5,2.6,13.7,3.8C773,319.5,776.5,315.4,769.4,309z"/>
	<path id="_Path_64" class="st16" d="M755,302.9c-5.1-2.5-10.6-4-16.2-4.5h-1.7c-0.9,0-1.9-0.1-2.8-0.1c-1.3,0-2.6,0.1-3.8,0.3
		l-0.5,0.1c-1.3,0.2-2.8,0.4-4.1,0.7h-0.1c-1.3,0.4-2.6,0.9-3.8,1.3l-0.5,0.2c-1,0.3-0.3,0.7,1.2,0.6c0.9-0.1,1.8-0.3,2.8-0.5
		c0.5-0.1,0.9-0.1,1.4-0.1c1,0,2.1,0,3.1-0.1c0.8-0.1,1.7-0.1,2.6-0.1c1.2,0,2.4,0.1,3.6,0.1l2,0.1c1.9,0.1,3.7,0.3,5.6,0.6
		c0.8,0.1,1.7,0.3,2.5,0.4c0.3,0,0.5,0.1,0.8,0.1c0.9,0.2,1.9,0.4,2.8,0.6c1.6,0.3,3.1,0.6,4.7,1C755.7,303.8,756,303.3,755,302.9z"
		/>
</g>
</svg>
