<svg id="Layer_1" data-name="Layer 1" xmlns="http://www.w3.org/2000/svg" viewBox="0 0 1200 1200"><defs><style>.cls-1,.cls-11,.cls-15,.cls-16{fill:#fff0e7;}.cls-1,.cls-11,.cls-15{stroke:#7d5c51;}.cls-1,.cls-11,.cls-15,.cls-5,.cls-8,.cls-9{stroke-miterlimit:10;}.cls-1,.cls-9{stroke-width:7.48px;}.cls-2{fill:#f19c20;}.cls-3{fill:#2c150c;}.cls-4{fill:#352c16;opacity:0.3;}.cls-5{fill:#7cc193;stroke:#458259;}.cls-5,.cls-8{stroke-width:3.74px;}.cls-6{fill:#7e5d52;}.cls-7{fill:#fbcecf;}.cls-14,.cls-8{fill:#ee495d;}.cls-8{stroke:#b72b43;}.cls-10,.cls-9{fill:#fec20f;}.cls-9{stroke:#e1a225;}.cls-11{stroke-width:8.28px;}.cls-12{fill:#ceb2a3;}.cls-13{fill:#5a3913;}.cls-15{stroke-width:7.49px;}.cls-17{fill:#7d5c51;}.cls-18{fill:#f8b4b6;opacity:0.8;}.cls-19{fill:#941b1f;}.cls-20{fill:#e7bfaf;}</style></defs><title>kitty</title><g id="_Group_" data-name="&lt;Group&gt;"><path id="_Path_" data-name="&lt;Path&gt;" class="cls-1" d="M863.32,916.9A269.73,269.73,0,0,1,856.67,947c-14.87,53.85-47,104.3-113.18,132.22-36.39,15.45-83.09,24-143,22.52H599c-68.21,1.74-120.15-11.55-159.54-34a21.76,21.76,0,0,1-2-1.08c-52.27-30.41-82.1-77.37-98.55-127-.5-1.17-.84-2.41-1.25-3.58C335.06,928,332.82,920,331,911.84c-.32-1.25-.66-2.5-.91-3.74-11.39-50.19-11.39-100.22-9.22-136.45,0-1.16.08-2.33.16-3.41a1.84,1.84,0,0,1,.08-.66c.51-6.32,3.25-12.55,7.41-18.62,20-29.16,74-58.67,96.46-113.1a126.72,126.72,0,0,0,9.4-36.81c1.66-15.87,78.44-52.43,165.37-54.26,86.92,1.83,163.7,38.39,165.36,54.26,7.9,76.12,68.63,131.63,92.33,172.76,5.4,9.31,8.88,18,9.39,25.85C869,830.9,870.55,873.86,863.32,916.9Z"/><path id="_Path_2" data-name="&lt;Path&gt;" class="cls-1" d="M277.75,646.27c0,41.4,47.26,48.22,79.52,75,11.32,9.41,74-67.08,74-108.48,0-26.77-44.29-41.47-84.63-59.93C307.5,534.91,277.75,604.86,277.75,646.27Z"/><path id="_Path_3" data-name="&lt;Path&gt;" class="cls-1" d="M999.69,380.84c-2.66,18.53-20.36,35.48-37.39,48.78-36.15,28.33-42.64,59.74-39.48,99s62.33,147.59,30.09,236.09c-8.14,22.35-50.94,70.72-60.25,77.7l-26-41c18.7-17.62,48.37-59.08,48.37-97.56,0-69.47-33.16-119.5-53.94-169.36-1.66-4.07-3.32-8.14-4.82-12.21-16-43.46-20-87.92,18-146.09.17-.25.33-.58.5-.83s.33-.5.49-.75C915.93,313.28,1005.92,336.79,999.69,380.84Z"/><path id="_Path_4" data-name="&lt;Path&gt;" class="cls-2" d="M846.32,454.73A62.11,62.11,0,0,0,909.9,348.1a82.11,82.11,0,0,0-33.57,29.33C857.38,406,848.55,431.28,846.32,454.73Z"/><path id="_Path_5" data-name="&lt;Path&gt;" class="cls-3" d="M862.76,436.58a45.19,45.19,0,0,1-11.7-1.52c3.76-18.6,12.19-37.63,25.57-57.81a66.89,66.89,0,0,1,18.22-18.6,45.55,45.55,0,0,1-32.09,77.93Z"/><path id="_Compound_Path_" data-name="&lt;Compound Path&gt;" class="cls-4" d="M810.14,665.2h-.09c.09-.08.09-.08.09-.17Z"/><path id="_Compound_Path_2" data-name="&lt;Compound Path&gt;" class="cls-1" d="M885.59,670.85c-3.57-25.09-28.24-61.25-59.74-92.91-3.57-3.65-7.23-7.14-11-10.55-1.42-1.41-2.91-2.74-4.4-4.07l-10.89-2.16c-4.75-5.74-7.81,0-13.64,0-15.2,0-31,16.78-35.56,44.62A101.59,101.59,0,0,0,749.15,622a39.09,39.09,0,0,0,.24,4.32c1.67,16.79,12.64,33.57,23.19,41.22-3.57,2.9-17.2,14-20.69,17.44-12.55,12.48-60.33,72.47-60.33,72.47l94.49,82.35c4.56-3.08,12.29-11.13,21.43-21.77,4.82-5.65,10.06-12,15.37-18.78,15.79-19.78,32.17-42.47,41.47-57.84,1.5-2.41,2.75-4.57,3.83-6.56,2.9-5.41,5.49-10.22,7.56-14.63C885.59,700.1,889,694.7,885.59,670.85Z"/><path id="_Path_6" data-name="&lt;Path&gt;" class="cls-5" d="M431.28,632.42c0,52.87,70,153.05,158.85,153.05S750.94,685.29,750.94,632.42,678.94,594,590.13,594,431.28,579.54,431.28,632.42Z"/><path id="_Path_7" data-name="&lt;Path&gt;" class="cls-1" d="M405.39,878.58l-137,34.92s-4.31-46-4.66-75c-.07-8.47.17-15.54,1-19.52a11.09,11.09,0,0,1,.32-1.34c2.74-13.12,10-38.55,34.07-52.43a65.83,65.83,0,0,1,21.94-8,91.74,91.74,0,0,1,17.95-1.66C419.08,755.61,402.32,860.88,405.39,878.58Z"/><g id="_Group_2" data-name="&lt;Group&gt;"><path id="_Path_8" data-name="&lt;Path&gt;" class="cls-1" d="M328.66,1101.55c-21.94-10.47-47.61-47.12-67.06-79.35C244.32,993.27,232,967.92,232,967.92L409.26,895l1.51-.59c.33,1.42.67,3.24,1.15,5.33,1.18,5.39,2.83,13,4.75,21.51,6.56,29.76,16.11,72.3,17.95,84.77C447.08,1089.59,370.22,1121.25,328.66,1101.55Z"/></g><path id="_Path_9" data-name="&lt;Path&gt;" class="cls-2" d="M325.62,827c-18,22.69-42.39,20.36-59.76,14.38-.07-8.48.18-15.54,1-19.53.09-.41.17-.83.32-1.33,11.48,5.07,27.85,7.06,40-8.15,15.44-19.52,5.48-35.48-5.91-44.28a65.32,65.32,0,0,1,21.94-8C340.25,778.2,341.66,806.7,325.62,827Z"/><path id="_Path_10" data-name="&lt;Path&gt;" class="cls-6" d="M307.18,812.34c-12.14,15.21-28.51,13.22-40,8.15,2.75-13.13,10-38.56,34.08-52.43C312.66,776.86,322.62,792.82,307.18,812.34Z"/><path id="_Path_11" data-name="&lt;Path&gt;" class="cls-7" d="M307.36,1024.27c10.75,28,39,43.29,63,34.06s34.83-39.42,24.09-67.46-39-43.27-63-34S296.62,996.24,307.36,1024.27Z"/><path id="_Path_12" data-name="&lt;Path&gt;" class="cls-1" d="M208.74,957.15c0,27,19.85,48.83,44.35,48.83s44.36-21.87,44.36-48.83-19.86-48.82-44.36-48.82S208.74,930.19,208.74,957.15Z"/><path id="_Path_13" data-name="&lt;Path&gt;" class="cls-1" d="M338.35,902.7c0,24.62,18.14,44.59,40.51,44.59s40.51-20,40.51-44.59-18.14-44.59-40.51-44.59S338.35,878.08,338.35,902.7Z"/><path id="_Path_14" data-name="&lt;Path&gt;" class="cls-1" d="M266.79,920.8c0,27,19.85,48.82,44.36,48.82s44.36-21.86,44.36-48.82S335.65,872,311.15,872,266.79,893.84,266.79,920.8Z"/><path id="_Path_15" data-name="&lt;Path&gt;" class="cls-1" d="M768,894.38c-3.68,17.74-21.29,94.12-23.89,111.59-12.46,83.62,64.41,115.3,106,95.56S946.7,967.9,946.7,967.9Z"/><path id="_Path_16" data-name="&lt;Path&gt;" class="cls-2" d="M873.29,718.76c-2.07,4.4-4.66,9.22-7.56,14.62-1.09,2-2.33,4.16-3.83,6.57-9.3,15.37-25.68,38-41.47,57.83-5.31,6.73-10.55,13.13-15.37,18.78a114.88,114.88,0,0,1-20-14.87c-23.76-21.94-24.93-59.42-2.65-83.6C816.2,681.44,861.57,710.19,873.29,718.76Z"/><path id="_Path_17" data-name="&lt;Path&gt;" class="cls-6" d="M861.9,740c-9.3,15.37-25.68,38-41.47,57.83-12.87-4.4-46.19-30.66-18-61.16C824.34,712.77,853.5,731.05,861.9,740Z"/><path id="_Path_18" data-name="&lt;Path&gt;" class="cls-1" d="M910.36,913.5,776,882.33s1.66-27.66,3.49-39.13,1.33-77.53,56.83-87.59h3.42c1.16,0,2.32,0,3.49.08a88,88,0,0,1,17.86,2.25c27,6.39,40.14,24.68,46.78,40.71a5.47,5.47,0,0,1,.34.84A104.09,104.09,0,0,1,913.93,819c.08.41.16.9.25,1.41a.22.22,0,0,1,0,.25C917.18,841,910.36,913.5,910.36,913.5Z"/><path id="_Path_19" data-name="&lt;Path&gt;" class="cls-8" d="M754.4,602.12V602c-46.94,21.8-103.92,33.73-165,32h-.5c-61.11,1.72-118.09-10.21-165-32v.08c-1.43,7.76.92,16.71,5.24,19.91,52,38.26,106.17,56.7,159.79,55.49h.5C643,678.73,697.19,660.29,749.16,622,753.5,618.83,755.83,609.88,754.4,602.12Z"/><path id="_Path_20" data-name="&lt;Path&gt;" class="cls-2" d="M912.25,823.49c.08.16,0,.24,0,.24-21.11,15.46-46.62,12.88-66.07-7.89-21.52-23-14.38-41.05-4.9-57.09A88.25,88.25,0,0,1,859.15,761c-.34.5-.66,1.08-1,1.66-5.4,10.31-7.07,24,5.24,37.15,18.2,19.45,32.81,12.55,42.54,1.91a5.41,5.41,0,0,1,.34.83A104.31,104.31,0,0,1,912,822.07C912.08,822.49,912.16,823,912.25,823.49Z"/><path id="_Path_21" data-name="&lt;Path&gt;" class="cls-6" d="M906.27,802.54c-9.06,9.72-27.18,17-44.55-1.49-12.37-13.22-9.38-27.85-3.57-38.4.34-.58.66-1.16,1-1.66,27,6.4,40.13,24.68,46.78,40.72A5.41,5.41,0,0,1,906.27,802.54Z"/><path id="_Path_22" data-name="&lt;Path&gt;" class="cls-9" d="M627,696.58a37.4,37.4,0,1,1-37.4-37.4A37.4,37.4,0,0,1,627,696.58Z"/><path id="_Path_23" data-name="&lt;Path&gt;" class="cls-10" d="M589.55,727.32a30.75,30.75,0,1,1,30.75-30.74A30.77,30.77,0,0,1,589.55,727.32Z"/><path id="_Path_24" data-name="&lt;Path&gt;" class="cls-10" d="M459.58,625.1a6.56,6.56,0,1,1-6.55-6.55A6.56,6.56,0,0,1,459.58,625.1Z"/><path id="_Path_25" data-name="&lt;Path&gt;" class="cls-10" d="M503.22,641.66a7.75,7.75,0,1,1-7.74-7.75A7.74,7.74,0,0,1,503.22,641.66Z"/><path id="_Path_26" data-name="&lt;Path&gt;" class="cls-10" d="M548.33,653.3a7.75,7.75,0,1,1-7.74-7.75A7.74,7.74,0,0,1,548.33,653.3Z"/><path id="_Path_27" data-name="&lt;Path&gt;" class="cls-10" d="M718.66,625.1a6.56,6.56,0,1,0,6.57-6.55A6.57,6.57,0,0,0,718.66,625.1Z"/><path id="_Path_28" data-name="&lt;Path&gt;" class="cls-10" d="M675,641.66a7.76,7.76,0,1,0,7.77-7.75A7.76,7.76,0,0,0,675,641.66Z"/><path id="_Path_29" data-name="&lt;Path&gt;" class="cls-10" d="M629.91,653.3a7.75,7.75,0,1,0,7.75-7.75A7.75,7.75,0,0,0,629.91,653.3Z"/><path id="_Path_30" data-name="&lt;Path&gt;" class="cls-7" d="M872.05,1024.26c-10.75,28-39,43.28-63,34.06s-34.83-39.41-24.09-67.45,39-43.28,63-34.06S882.79,996.24,872.05,1024.26Z"/><path id="_Path_31" data-name="&lt;Path&gt;" class="cls-1" d="M970.34,957.05c0,27-19.86,48.82-44.36,48.82S881.63,984,881.63,957.05s19.85-48.82,44.35-48.82S970.34,930.1,970.34,957.05Z"/><path id="_Path_32" data-name="&lt;Path&gt;" class="cls-1" d="M840.73,902.6c0,24.62-18.15,44.59-40.52,44.59s-40.51-20-40.51-44.59S777.84,858,800.21,858,840.73,878,840.73,902.6Z"/><path id="_Path_33" data-name="&lt;Path&gt;" class="cls-1" d="M912.28,920.7c0,26.95-19.85,48.82-44.35,48.82s-44.36-21.87-44.36-48.82,19.85-48.83,44.36-48.83S912.28,893.74,912.28,920.7Z"/><path id="_Path_34" data-name="&lt;Path&gt;" class="cls-11" d="M911.09,427.19c0,3.86-.18,7.63-.44,11.39-2,25.28-10.87,49.37-25.2,71.53C873.77,528.22,858.23,545,839.66,560c-20.31,16.46-44.4,30.8-71.34,42.47-49.26,21.42-108,33.83-171.26,33.83-3.23,0-6.34-.09-9.56-.09v-.19c-3,.1-6.17.19-9.2.19-59.93,0-115.93-11.22-163.54-30.52-39.73-16.18-73.65-38.06-99.12-64-29.59-30-47.88-65.27-50.92-103.24-.28-3.77-.45-7.53-.45-11.4a142.42,142.42,0,0,1,6.33-41.73c.18-.83.47-1.57.73-2.39-.55-13.33-2.1-53.32-2.39-91.57-.26-30.06.29-59.11,2.58-73.45,5.88-36.5,5.06-107.29,35.85-121.9,37-17.57,104.9,40.35,132,65.45s63.07,62.43,63.07,62.43a3.41,3.41,0,0,0-.37.27c1-.19,1.93-.37,2.93-.46,2.49-.46,5-.83,7.54-1.1,5.81-.92,11.68-1.56,17.66-2.21,2-.19,4.23-.46,6.54-.55,15.61-1.29,36.86-1.84,51.1-1.84v.09c13.52.1,33.2.55,48.36,1.66,3.23.18,6.16.45,8.91.73,5.81.65,11.49,1.29,17.1,2.12,2.76.36,5.43.74,8.1,1.19,1,.1,1.92.28,2.94.46a4.21,4.21,0,0,0-.36-.28s35.84-37.32,63.06-62.42,95-83,132-65.45c30.79,14.61,30,85.4,35.86,121.9,2.21,13.61,2.76,40.36,2.56,68.76v3.5c-.09,20.31-.65,41.09-1.09,58.19-.56,15.54-1,28.13-1.29,34.57a21.78,21.78,0,0,1,.73,2.39A142.11,142.11,0,0,1,911.09,427.19Z"/><g id="_Group_3" data-name="&lt;Group&gt;"><path id="_Path_35" data-name="&lt;Path&gt;" class="cls-12" d="M777.94,365.43l-5.58.54c-3.54.44-8.69.64-14.71,1.63L748,369.26c-3.44.47-7,1.52-10.7,2.35a78,78,0,0,0-11.19,3.23,73.78,73.78,0,0,0-11.21,4.39A70.19,70.19,0,0,0,704.34,385c-3.38,2.08-6.42,4.52-9.4,6.78s-5.7,4.64-8.12,7.1a66.62,66.62,0,0,0-6.61,7.29,84.09,84.09,0,0,0-8.42,13c-1.76,3.49-3,5.59-3,5.59l-.84-.42s.16-2.29.82-6.47a51.21,51.21,0,0,1,5.48-16.67,50.62,50.62,0,0,1,6.38-9.65,53.47,53.47,0,0,1,8.9-8.82c3.5-2.35,7.08-4.92,11-6.6a90.09,90.09,0,0,1,11.9-4.82,78.43,78.43,0,0,1,12.13-3.46,79.91,79.91,0,0,1,11.83-2.22c3.86-.45,7.54-1.28,11.12-1.27l10-.41c6.15-.2,11.22.25,14.79.28l5.62.18Z"/></g><path id="_Path_36" data-name="&lt;Path&gt;" class="cls-7" d="M342.13,279.59A25.2,25.2,0,0,1,307.66,255c2.25-50.27,9.23-125.76,21.29-130.53C337,121.3,394,171,427.18,201.37a25.18,25.18,0,0,1-4.53,40.48C399.1,255.23,367.74,269.42,342.13,279.59Z"/><path id="_Path_37" data-name="&lt;Path&gt;" class="cls-7" d="M841.24,282.51a20.09,20.09,0,0,0,27.32-19.42c-1.83-49.8-8.9-133.56-21.62-138.6-8.54-3.37-71.45,52.12-103.44,81.66A20,20,0,0,0,746.65,238C772.87,253.78,812.12,271.36,841.24,282.51Z"/><g id="_Group_4" data-name="&lt;Group&gt;"><g id="_Group_5" data-name="&lt;Group&gt;"><g id="_Group_6" data-name="&lt;Group&gt;"><path id="_Path_38" data-name="&lt;Path&gt;" class="cls-13" d="M777.05,363.39l-5.59.3L765,364c-2.47.17-5.29.18-8.3.62L747,365.8c-3.47.3-7.06,1.16-10.79,1.8l-5.68,1-5.71,1.53L719,371.74l-5.66,2.05a83.55,83.55,0,0,0-10.93,4.8,40.2,40.2,0,0,0-5.06,2.85c-1.61,1-3.31,1.89-4.78,3l-4.41,3.22c-1.44,1.05-2.62,2.33-3.95,3.39a28.78,28.78,0,0,0-3.52,3.45,33.17,33.17,0,0,0-3,3.49c-.85,1.21-1.82,2.28-2.57,3.41l-2.1,3.24c-1.15,2.14-2.18,4-2.93,5.61s-1.28,2.91-1.73,3.77l-.67,1.33-.38-.17s.46-1.95,1.42-5.44a48.31,48.31,0,0,1,2.18-6.17,51.09,51.09,0,0,1,4.12-7.51,34.73,34.73,0,0,1,3-3.93,31.18,31.18,0,0,1,3.49-3.94,59.89,59.89,0,0,1,8.68-7.3c1.6-1.15,3.41-2,5.14-3a36.92,36.92,0,0,1,5.43-2.76l5.68-2.44c1.89-.83,3.91-1.31,5.87-2l5.89-1.89,6-1.36,5.87-1.34,5.8-.85c3.81-.48,7.46-1.26,11-1.36l9.9-.66c3.06-.29,5.86-.16,8.35-.2l6.42,0,5.61,0Z"/><path id="_Compound_Path_3" data-name="&lt;Compound Path&gt;" class="cls-6" d="M777.05,363.39l-11.69,1c-3.84.43-7.76.68-11.61,1.33l-5.81.85-2.88.41-2.84.53-11.49,2.34.1,0-11.44,3.28.11,0-6.76,2.56a68.91,68.91,0,0,0-6.42,2.9c-2.14,1-4.22,2.16-6.31,3.4l-1.57.89-.2.11,0,0,0,0,.19-.12h0l-.09.06-.38.24-.76.49-3,1.94c-1,.62-1.94,1.4-2.9,2.1a32,32,0,0,0-2.81,2.19l-2.73,2.37-2.43,2.39-1.09,1.07L681,397.14l-1.17,1.37c-.17.19-.47.56-.52.59l-.54.72-2.11,2.87-1.94,3,.08-.13-2.69,5.21-.2.4-.16.34-.31.68-.62,1.36c-.41.94-.81,1.79-1.26,2.68l-.88,1.76-1.8-.79-.38-.17-1.59-.7.43-1.64,1.33-5.1.08-.31.13-.41.22-.61.44-1.22.88-2.44.44-1.22.11-.3L669,403l.13-.32,0-.07.28-.58,1.18-2.37a40.3,40.3,0,0,1,2.8-4.69l-.08.14,1.61-2.15.81-1.07.4-.53.21-.27.3-.36,3.4-3.78h0a56.57,56.57,0,0,1,8.3-7l.52-.38.13-.1.23-.15.28-.17,1.14-.66,2.26-1.33,1.13-.67.5-.28.3-.15.58-.29,2.35-1.18,2.42-1.19,2.42-1,2.42-1c.79-.35,1.74-.61,2.53-.87l5.11-1.62,5-1.51.09,0h0l11.88-2.5h.1l11.71-1.51c1-.12,2-.24,3-.31s2-.06,3-.11l5.91-.22c3.94-.23,7.87-.07,11.85-.09L777,363h0Zm0,0,0-.42v0l-11.81.45c-3.89.24-7.84.29-11.75.75l-5.88.56c-2,.14-3.84.36-5.79.68l-11.65,1.92.09,0-11.78,2.91.12,0-5,1.68-4.84,1.72c-.86.33-1.61.53-2.4.92l-2.4,1.06-2.41,1.05-2.27,1.16L697,379l-.58.3-.29.15,0,0,.21-.12h0l-.08,0-.14.09-1.12.67-2.25,1.36-1.12.67-.28.17-.07.05s-.11.07.05,0l0,0-.13.1-.53.4a53.47,53.47,0,0,0-7.68,6.58h0l-3.35,3.82-2.79,3.75-.09.14a33.84,33.84,0,0,0-2.47,4.24l-1.1,2.29-.28.58,0,.08,0,0v0c-.09.22.12-.29.09-.23h0l0,.15-.11.31-.43,1.22-.85,2.45-.42,1.23-.22.61-.05.15v0h0c.06-.18,0-.05,0-.08v0l0,.07-.08.31-1.28,5-1.17-2.35.38.18-2.68,1c.46-.88.92-1.83,1.32-2.72l.64-1.35.31-.68.16-.34.14-.26,2.86-5.39,0-.07.05-.07,2-3,2.2-2.92.55-.72.66-.78,1.19-1.36,1.19-1.36.26-.29.08-.08.17-.16.32-.31.65-.63c.94-.89,1.56-1.56,2.76-2.62l2.76-2.34a35.8,35.8,0,0,1,2.9-2.21c1-.7,1.9-1.42,3-2.1l3.06-1.91,1.75-1.07,1.58-.87a81.7,81.7,0,0,1,13.3-6.14l6.82-2.33.09,0h0l11.55-2.89.07,0h0l11.57-1.94c1-.16,1.95-.3,2.95-.41l2.94-.25,5.84-.53c3.9-.42,7.8-.45,11.75-.67Z"/></g></g></g><path id="_Path_39" data-name="&lt;Path&gt;" class="cls-6" d="M649.27,539.51c-.67,1.12-1.37,2.28-2.16,3.44-5.25,8.4-11.5,17.17-16.42,22.3-31.9,33.76-63.59,17.58-83.29-.54a133.3,133.3,0,0,1-18.62-22c-1-1.45-1.74-2.65-2.23-3.52,2.11-.45,4.22-1,6.29-1.49a106,106,0,0,0,14.64-5.25,141.49,141.49,0,0,0,13-6.54,89.76,89.76,0,0,0,10.75-7.45,101.4,101.4,0,0,0,8.2-7.48c1.07-1.25,2.11-2.4,3.1-3.48.83-1.16,1.61-2.23,2.32-3.23,1.49-1.9,2.31-3.6,3.06-4.67.41-.71,1.45-2.53,2.15-3.77l.12.13.79.91.25.49a38.41,38.41,0,0,0,2.65,5c.66,1,1.36,2.15,2.15,3.39s1.86,2.44,2.89,3.77a73.25,73.25,0,0,0,7.95,8.15,92.18,92.18,0,0,0,10.71,8.11,106.9,106.9,0,0,0,13.25,7.2,119.29,119.29,0,0,0,15,5.62C647,538.89,648.11,539.22,649.27,539.51Z"/><path id="_Path_40" data-name="&lt;Path&gt;" class="cls-14" d="M630.69,565.27c-31.88,33.74-63.61,17.56-83.29-.55.56-.62,1.16-1.25,1.79-1.87,10.1-10,25.83-11.78,38.22-4.76l3,1.69,2.29-1.16a32.36,32.36,0,0,1,35.47,4.31A29.49,29.49,0,0,1,630.69,565.27Z"/><g id="_Group_7" data-name="&lt;Group&gt;"><path id="_Path_41" data-name="&lt;Path&gt;" class="cls-6" d="M759.35,468s13.66-6,27.46-11.71c3.45-1.43,6.84-3,10.1-4.26s6.4-2.14,9.12-2.85a71.07,71.07,0,0,1,9.24-1.87l.15.39a71.92,71.92,0,0,1-8.24,4.59c-2.52,1.23-5.51,2.56-8.78,3.78s-6.89,2.18-10.44,3.33c-14.17,4.67-28.47,9-28.47,9Z"/></g><g id="_Group_8" data-name="&lt;Group&gt;"><path id="_Path_42" data-name="&lt;Path&gt;" class="cls-6" d="M764.48,481.72s12.84.82,25.64,2c3.2.28,6.42.42,9.41.77a73.31,73.31,0,0,1,8.09,1.6,53.49,53.49,0,0,1,7.76,2.51l-.06.41a53.5,53.5,0,0,1-8.15.36,76.12,76.12,0,0,1-8.22-.61c-3-.47-6.11-1.18-9.27-1.77-12.66-2.25-25.26-4.88-25.26-4.88Z"/></g><g id="_Group_9" data-name="&lt;Group&gt;"><path id="_Path_43" data-name="&lt;Path&gt;" class="cls-6" d="M764.52,501.65s10.55,3,21,6.26c2.61.81,5.27,1.49,7.69,2.33a52.9,52.9,0,0,1,6.38,2.91,38.35,38.35,0,0,1,5.89,3.74l-.14.38a39.37,39.37,0,0,1-6.9-1,51.87,51.87,0,0,1-6.73-2c-2.38-.95-4.84-2.17-7.35-3.27-10-4.31-20-9-20-9Z"/></g><path id="_Path_44" data-name="&lt;Path&gt;" class="cls-2" d="M657.83,272c-6.89,26-50.57,38.8-72.46,38.33-20.77-.45-46-10.29-62.5-24.82-13.52-11.95-7.64-39.89-10.31-59.29,5.81-.92,11.68-1.56,17.66-2.21,2-.19,4.23-.46,6.54-.55,15.61-1.29,36.86-1.84,51.1-1.84v.09c13.52.1,33.2.55,48.36,1.66,3.23.18,6.16.45,8.91.73,5.81.65,11.49,1.29,17.1,2.12C662.6,237.75,662.13,256,657.83,272Z"/><path id="_Path_45" data-name="&lt;Path&gt;" class="cls-6" d="M637.41,259.63c-5,18.75-36.3,27.86-52,27.49-14.88-.28-33-7.36-44.86-17.84-8.09-7.07-6-31-3.75-45.78,15.61-1.29,36.86-1.84,51.1-1.84v.09c13.52.1,33.2.55,48.36,1.66C638.33,233.7,640.36,248.6,637.41,259.63Z"/><g id="_Group_10" data-name="&lt;Group&gt;"><path id="_Path_46" data-name="&lt;Path&gt;" class="cls-6" d="M707.44,530.08a24.42,24.42,0,0,1-11.79,11.83A48.3,48.3,0,0,1,679,546.38a76.24,76.24,0,0,1-17.41-.25A94.13,94.13,0,0,1,647.11,543c-.78-.21-1.52-.42-2.31-.66a113.75,113.75,0,0,1-15.48-6.09A83.24,83.24,0,0,1,616,528.34a94.84,94.84,0,0,1-10.71-8.85,64.54,64.54,0,0,1-7.66-8.86l-2.69-4.05c-.71-1.33-1.36-2.57-1.95-3.64a35.86,35.86,0,0,1-2.27-5.3l-.7-1.9.41-.17.62,1.33.25.49a38.41,38.41,0,0,0,2.65,5c.66,1,1.36,2.15,2.15,3.39s1.86,2.44,2.89,3.77a73.25,73.25,0,0,0,7.95,8.15,92.18,92.18,0,0,0,10.71,8.11,106.9,106.9,0,0,0,13.25,7.2,119.29,119.29,0,0,0,15,5.62c1.12.29,2.24.62,3.4.91A95,95,0,0,0,662.09,542a74,74,0,0,0,16.55.49,44.62,44.62,0,0,0,15.44-3.84,22.64,22.64,0,0,0,10.63-10,25.25,25.25,0,0,0,2.36-13,49.38,49.38,0,0,0-.83-5.87c-.41-1.87-1-3.56-1.45-5.22-1-3.23-2.31-5.87-3.23-8.15-2.27-4.3-3.51-6.78-3.51-6.78l.33-.21s1.57,2.32,4.18,6.49c1.07,2.2,2.6,4.89,3.89,8.11.58,1.66,1.32,3.36,1.9,5.3a44.24,44.24,0,0,1,1.16,6.21A27.85,27.85,0,0,1,707.44,530.08Z"/></g><g id="_Group_11" data-name="&lt;Group&gt;"><path id="_Path_47" data-name="&lt;Path&gt;" class="cls-12" d="M404.25,364.38l5.6-.18c3.57,0,8.66-.48,14.81-.28l10,.41c3.58,0,7.25.82,11.11,1.27a80,80,0,0,1,11.84,2.22,78.4,78.4,0,0,1,12.1,3.46,89.8,89.8,0,0,1,11.92,4.82c3.94,1.68,7.53,4.25,11,6.6a53.86,53.86,0,0,1,8.9,8.82,50.15,50.15,0,0,1,6.38,9.65,51.51,51.51,0,0,1,5.49,16.67c.65,4.18.81,6.47.81,6.47l-.85.42s-1.22-2.1-3-5.59a82.45,82.45,0,0,0-8.41-13,68.59,68.59,0,0,0-6.6-7.29c-2.44-2.46-5.27-4.7-8.14-7.1s-6-4.7-9.39-6.78a69.81,69.81,0,0,0-10.57-5.72,74.38,74.38,0,0,0-11.19-4.39,78.73,78.73,0,0,0-11.22-3.23c-3.68-.83-7.24-1.88-10.66-2.35l-9.69-1.66c-6-1-11.15-1.19-14.68-1.63l-5.6-.54Z"/></g><g id="_Group_12" data-name="&lt;Group&gt;"><g id="_Group_13" data-name="&lt;Group&gt;"><g id="_Group_14" data-name="&lt;Group&gt;"><path id="_Path_48" data-name="&lt;Path&gt;" class="cls-13" d="M403.35,363l5.61,0,6.43,0c2.48,0,5.28-.09,8.34.2l9.9.66c3.54.1,7.18.88,11,1.36l5.8.85,5.87,1.34,6,1.36,5.89,1.88c2,.68,4,1.16,5.87,2l5.68,2.44a36.43,36.43,0,0,1,5.43,2.76c1.73,1,3.54,1.89,5.13,3a60,60,0,0,1,8.69,7.3,31.18,31.18,0,0,1,3.49,3.94,34.73,34.73,0,0,1,2.95,3.93,50.06,50.06,0,0,1,4.11,7.51,48.53,48.53,0,0,1,2.19,6.17c1,3.49,1.41,5.44,1.41,5.44l-.38.17-.66-1.33c-.45-.87-.94-2.18-1.74-3.77s-1.77-3.48-2.93-5.61l-2.1-3.24c-.75-1.13-1.71-2.2-2.56-3.41a33.17,33.17,0,0,0-3-3.49,27.5,27.5,0,0,0-3.53-3.45c-1.32-1.06-2.5-2.35-3.95-3.39l-4.4-3.22c-1.47-1.12-3.17-2-4.78-3a42.31,42.31,0,0,0-5.06-2.86L472.64,376c-1.79-.9-3.73-1.45-5.59-2.2l-5.66-2.05-5.79-1.56-5.71-1.53-5.68-1c-3.73-.64-7.32-1.5-10.79-1.8l-9.75-1.15c-3-.44-5.83-.45-8.31-.62l-6.42-.34-5.6-.3Z"/><path id="_Compound_Path_4" data-name="&lt;Compound Path&gt;" class="cls-6" d="M403.35,363l11.82-.38c4,0,7.91-.15,11.85.08l5.9.23c1,.05,1.95,0,3,.11s2,.18,3,.3l11.71,1.51h.1l11.88,2.5h0l.08,0,5,1.51,5.11,1.62c.78.27,1.74.52,2.52.88l2.43,1,2.42,1,2.42,1.2,2.35,1.17.58.3.3.14.5.29,1.13.66,2.26,1.33,1.13.67.29.16.22.15.14.1.52.39a56.91,56.91,0,0,1,8.3,7l-.12-.12,3.6,4,.12.13.16.22.19.25.39.51.77,1,1.53,2v0a38.83,38.83,0,0,1,2.8,4.68L511,402l.29.58,0,.07.13.32.06.15.11.3.44,1.22.88,2.44.43,1.22.22.61.06.16.08.29.09.31,1.32,5,.44,1.69-1.6.7-.38.17-1.8.8-.89-1.76c-.45-.9-.85-1.75-1.26-2.69s-.8-1.81-1.26-2.73l-2.74-5.31.11.18-1.95-3-2.11-2.86-.54-.73s-.35-.4-.51-.58l-1.17-1.38-1.17-1.37-1.09-1.07c-.82-.79-1.78-1.8-2.49-2.43l-2.7-2.42c-.78-.67-1.83-1.38-2.78-2.1s-1.94-1.48-2.89-2.09l-3-2-.76-.48-.38-.25-.1-.06h0l.19.12h0l-.05,0-.2-.11-1.56-.9-3.14-1.79-3.19-1.59c-1.12-.55-2.08-1.1-3.22-1.53l-3.33-1.38-1.56-.63-1.69-.64-3.37-1.29.12,0-11.44-3.29.1,0-11.49-2.34c-1.92-.39-3.73-.68-5.72-.94l-5.8-.85c-3.86-.65-7.78-.89-11.62-1.33l-11.69-1h0v0Zm0,0v.42l0,0,11.74.22c3.94.22,7.85.24,11.74.67l5.85.52a57.1,57.1,0,0,1,5.89.67l11.56,1.94h.11l11.54,2.89h0l.08,0,3.42,1.17,1.7.59,1.82.66,3.38,1.26a36.22,36.22,0,0,1,3.36,1.46l3.29,1.58,3.16,1.75,1.57.88,1.75,1.07,3.06,1.91c1.08.68,2,1.4,3,2.1s1.94,1.34,3,2.22l2.7,2.37c1.11,1,1.8,1.71,2.72,2.57l.65.63.32.32.16.15.08.08.27.29,1.19,1.36,1.18,1.36.67.78.55.72,2.2,2.93,2,3,0,.06.07.13L512,409c.44.86.85,1.8,1.28,2.69s.86,1.83,1.31,2.72l-2.68-1,.38-.17-1.16,2.39-1.29-5-.08-.31,0-.08v0c0,.06,0-.14,0,.13h0v0l-.06-.15-.21-.62-.42-1.22-.85-2.45-.43-1.22-.1-.31-.06-.15h0c.19.49.05.13.09.24v-.05l0-.08-.27-.59-1.11-2.29a35.33,35.33,0,0,0-2.47-4.24v0h0l-1.51-2-.76-1-.38-.51-.18-.26s-.13-.18,0,0l-.1-.12-3.15-3.59-.12-.12a53.52,53.52,0,0,0-7.68-6.59l-.53-.4-.13-.1,0,0,.06,0-.07,0-.29-.17-1.12-.68-2.25-1.35-1.12-.68-.14-.08-.07-.05h0l.21.12,0,0-.29-.15-.58-.3-2.34-1.21-2.27-1.16-2.4-1-2.4-1.07a22.91,22.91,0,0,0-2.4-.92l-4.85-1.72-5-1.69.12,0-11.78-2.9.1,0-11.66-1.92-2.87-.42c-.92-.13-1.92-.16-2.91-.27l-5.88-.56c-3.91-.45-7.87-.51-11.76-.75Z"/></g></g></g><g id="_Group_15" data-name="&lt;Group&gt;"><path id="_Path_49" data-name="&lt;Path&gt;" class="cls-6" d="M420.89,468.33s-14.3-4.31-28.46-9c-3.55-1.15-7.14-2.17-10.44-3.33s-6.26-2.55-8.78-3.78a71.92,71.92,0,0,1-8.24-4.59l.15-.39a71.07,71.07,0,0,1,9.24,1.87c2.71.71,5.84,1.64,9.12,2.85s6.65,2.83,10.1,4.26C407.37,461.92,421,468,421,468Z"/></g><g id="_Group_16" data-name="&lt;Group&gt;"><path id="_Path_50" data-name="&lt;Path&gt;" class="cls-6" d="M416,482.13s-12.61,2.63-25.26,4.88c-3.16.59-6.31,1.3-9.28,1.77a75.93,75.93,0,0,1-8.22.61,53.5,53.5,0,0,1-8.15-.36l-.05-.41a53,53,0,0,1,7.76-2.51,72.64,72.64,0,0,1,8.08-1.6c3-.35,6.21-.49,9.41-.77,12.8-1.2,25.65-2,25.65-2Z"/></g><g id="_Group_17" data-name="&lt;Group&gt;"><path id="_Path_51" data-name="&lt;Path&gt;" class="cls-6" d="M416,502s-9.92,4.66-20,9c-2.5,1.1-5,2.32-7.34,3.27a52.33,52.33,0,0,1-6.73,2,39.37,39.37,0,0,1-6.9,1l-.15-.38a39,39,0,0,1,5.89-3.74,53.09,53.09,0,0,1,6.39-2.91c2.42-.84,5.08-1.52,7.69-2.33,10.42-3.3,21-6.26,21-6.26Z"/></g><path id="_Path_52" data-name="&lt;Path&gt;" class="cls-1" d="M303.9,725.36c-31.58-10.72-41.71-37.22-51.51-89.66-.59-2.91-1.09-5.9-1.67-9-.84-4.48-1.58-9.31-2.33-14.29-3.24-21.52-6-46.87-8.31-71.63-.82-8-1.49-15.87-2.15-23.6-1.67-18.45-9.32-35-14-48.36-2.09-5.65-3.58-10.81-3.91-15.21-.34-4.57,12.29-9.56,12.05-12.3l126.47-2c0,2.57,8.73,9.3,7.31,13.21-.82,2.24-1.59,4.57-2.33,7.06-7.14,24.35-9.22,57.67-7.81,75.29,1.92,23,22.27,130.88,23.19,141.94C380.77,699.1,373.46,748.88,303.9,725.36Z"/><path id="_Path_53" data-name="&lt;Path&gt;" class="cls-2" d="M322.52,574.59c0,50-53.1,59.66-67.38,61.33-.59-2.91-1.1-5.9-1.67-9-.84-4.48-1.58-9.31-2.33-14.29-3.24-21.52-6-46.87-8.31-71.63-.83-8-1.5-15.88-2.16-23.6A106.92,106.92,0,0,1,263.76,515C296.17,515,322.52,541.77,322.52,574.59Z"/><path id="_Path_54" data-name="&lt;Path&gt;" class="cls-6" d="M295.26,574.59c0,30.91-30.65,38.23-44.12,38.06-3.24-21.52-6-46.87-8.31-71.63C257.53,536.2,295.19,535.45,295.26,574.59Z"/><g id="_Group_18" data-name="&lt;Group&gt;"><path id="_Path_55" data-name="&lt;Path&gt;" class="cls-6" d="M590.76,494.7l-.54,1.29-.87,2.07s-.28.66-.86,1.82a37.69,37.69,0,0,1-2.65,5c-.62,1-1.37,2.19-2.15,3.44s-1.82,2.44-2.86,3.8a76.87,76.87,0,0,1-7.94,8.2,85.47,85.47,0,0,1-10.72,8.19,105,105,0,0,1-13.2,7.24,113,113,0,0,1-15.06,5.67c-1.69.49-3.39,1-5.13,1.32a77.21,77.21,0,0,1-11.13,2.11,74.69,74.69,0,0,1-16.63.29,44.83,44.83,0,0,1-15.56-4.26,22.62,22.62,0,0,1-10.59-10.55,27.22,27.22,0,0,1-2.15-13.28c.12-2.07.66-4.06.91-5.92.45-1.86,1.07-3.56,1.53-5.21,1.07-3.23,2.36-5.92,3.31-8.16L482,491l.37.21s-1,2.6-2.9,7.07c-.78,2.32-1.82,5-2.65,8.19-.33,1.66-.78,3.36-1.07,5.14-.13,1.82-.58,3.72-.54,5.66A24.13,24.13,0,0,0,477.64,529c1.91,3.73,5.34,6.62,9.48,8.69a41.45,41.45,0,0,0,14.27,3.6,71.54,71.54,0,0,0,15.77-.54,70.37,70.37,0,0,0,9.39-1.53c2.11-.45,4.22-1,6.29-1.49a106,106,0,0,0,14.64-5.25,141.49,141.49,0,0,0,13-6.54,89.76,89.76,0,0,0,10.75-7.45,101.4,101.4,0,0,0,8.2-7.48c1.07-1.25,2.11-2.4,3.1-3.48.83-1.16,1.61-2.23,2.32-3.23,1.49-1.9,2.31-3.6,3.06-4.67.41-.71,1.45-2.53,2.15-3.77C590.39,495.36,590.6,495,590.76,494.7Z"/></g><path id="_Path_56" data-name="&lt;Path&gt;" class="cls-15" d="M253.48,447.42c-4.6,5.78-15.53,16.32-32.27,8.21s-42.66-58.15,10.87-97c34.51-25,152.29-23.58,147.3,63.53-.92,16.24-12.5,36.19-31.23,35.17s-27.58-12.69-27.58-12.69Z"/><g id="_Group_19" data-name="&lt;Group&gt;"><g id="_Group_20" data-name="&lt;Group&gt;"><path id="_Path_57" data-name="&lt;Path&gt;" class="cls-16" d="M253,413.32c-11.38,55.25,40.18,63.4,53.84,52.21,21.7-17.79,14.6-54.72,14.6-54.72"/><path id="_Path_58" data-name="&lt;Path&gt;" class="cls-17" d="M253,413.32s0,2.44-.23,6.7c0,1.07-.14,2.25-.13,3.52s.2,2.61.31,4,.16,3,.38,4.53.67,3.2,1,4.92a22.32,22.32,0,0,0,1.62,5.12,22.82,22.82,0,0,0,2.33,5.15,24.06,24.06,0,0,0,3.27,4.9l1.93,2.33a23.7,23.7,0,0,0,2.26,2.09c.79.66,1.52,1.41,2.37,2l2.69,1.7a12.93,12.93,0,0,0,2.81,1.53l2.94,1.38A39.81,39.81,0,0,0,289.42,466c4.33.22,8.92-.09,12.48-1.73,3-1.19,6.76-5.23,9-8a48.25,48.25,0,0,0,5.75-10.73,67.29,67.29,0,0,0,3.08-10.84,96.45,96.45,0,0,0,1.34-9.63c.25-2.91.36-5.47.41-7.58.09-4.23-.07-6.68-.07-6.68a52.41,52.41,0,0,1,1.55,6.56,74.39,74.39,0,0,1,1,17.88c-.1,1.87-.39,3.82-.62,5.84a57.72,57.72,0,0,1-1.41,6.2,46.07,46.07,0,0,1-5.67,12.76c-1.54,2-3.17,4.42-4.83,5.86l-1.24,1.25-.63.62-.31.31-.24.21-.05,0-.12.08-.22.16a31.74,31.74,0,0,1-3.76,2.26c-5.18,2.42-10.58,2.78-15.86,2.63a47.23,47.23,0,0,1-15.23-3.54c-2.3-1.21-4.75-2.1-6.75-3.73L264,464c-1-.79-1.82-1.73-2.72-2.58a28.91,28.91,0,0,1-2.55-2.65l-2.1-2.94a29.38,29.38,0,0,1-3.3-6.06,24.3,24.3,0,0,1-2.09-6.11,25,25,0,0,1-1.07-5.86c-.15-1.89-.29-3.7-.42-5.42,0-1.73.26-3.37.37-4.89s.27-2.92.4-4.22.56-2.41.8-3.45C252.31,415.68,253,413.32,253,413.32Z"/></g></g><path id="_Compound_Path_5" data-name="&lt;Compound Path&gt;" class="cls-14" d="M614.87,460.11c-10.54-3-38.82-3-49.37,0-13.11,3.72-14.92,13-7.87,23,6.93,9.84,31.58,17.2,32.56,17.45,1-.25,25.61-7.61,32.54-17.45C629.8,473.09,628,463.83,614.87,460.11Z"/><path id="_Path_59" data-name="&lt;Path&gt;" class="cls-18" d="M571,469.53c-1.56-2.24-2.25-4.26-1.85-5.44s2.1-2.14,4.58-2.84a8.37,8.37,0,0,1,2.33-.34h28a8.6,8.6,0,0,1,2.34.34c2.46.7,4.16,1.77,4.55,2.84s-.28,3.2-1.85,5.42C606.43,473.36,573.71,473.36,571,469.53Z"/><path id="_Path_60" data-name="&lt;Path&gt;" class="cls-19" d="M622.71,482.71c-6.89,9.82-31.53,17.16-32.52,17.45-1-.29-25.61-7.63-32.58-17.45-3.29-4.71-4.63-9.2-3.82-13.11a22.1,22.1,0,0,0,3.82,8.16c7,9.82,31.62,17.24,32.58,17.46,1-.22,25.63-7.64,32.52-17.46a21.56,21.56,0,0,0,3.82-8.23C627.42,473.44,626.07,478,622.71,482.71Z"/><g id="_Group_21" data-name="&lt;Group&gt;"><path id="_Path_61" data-name="&lt;Path&gt;" class="cls-6" d="M412.12,309A54.3,54.3,0,0,1,425.6,300a53.15,53.15,0,0,1,18.53-5.14c3.38-.06,6.75-.35,10.08.35,1.66.23,3.31.48,4.91.82,1.56.52,3.1,1,4.59,1.6a31.4,31.4,0,0,1,8.06,4.13,35.75,35.75,0,0,1,3.41,2.34l2.73,2.72a29.72,29.72,0,0,1,4.34,4.93c1.08,1.62,1.9,3.14,2.56,4.34,1.32,2.44.32,3.33-2.15,2.27-1.21-.55-2.69-1.15-4.22-2s-3.58-1.19-5.45-2a31.58,31.58,0,0,0-6.24-1.9A35.8,35.8,0,0,0,460,311c-1.18-.14-2.34-.36-3.52-.58-1.21,0-2.43,0-3.65-.09a52.91,52.91,0,0,0-7.43.15c-2.5.12-5,.62-7.55.91-2.48.61-5,.88-7.45,1.6-4.93,1.06-9.54,2.65-13.74,3.76C408.51,319.46,405.08,315.4,412.12,309Z"/><path id="_Path_62" data-name="&lt;Path&gt;" class="cls-20" d="M426.56,302.88a46.4,46.4,0,0,1,16.18-4.54l1.71,0c.93,0,1.86-.06,2.78-.06a18.57,18.57,0,0,1,3.85.32l.45.08c1.34.19,2.76.4,4.09.67l.1,0c1.3.43,2.58.85,3.82,1.33l.5.17c1,.29.25.69-1.22.58-.92-.11-1.84-.29-2.76-.46a8.71,8.71,0,0,0-1.36-.14c-1.05,0-2.08,0-3.1-.07-.82-.08-1.67-.13-2.6-.13-1.19,0-2.4.07-3.62.15l-2,.11a55.09,55.09,0,0,0-5.56.6c-.84.13-1.68.25-2.52.35a7.39,7.39,0,0,0-.82.14c-.94.23-1.88.41-2.82.58a46,46,0,0,0-4.69,1C425.83,303.83,425.56,303.34,426.56,302.88Z"/><path id="_Path_63" data-name="&lt;Path&gt;" class="cls-6" d="M769.41,309A54.3,54.3,0,0,0,755.93,300a53.15,53.15,0,0,0-18.53-5.14c-3.39-.06-6.75-.35-10.08.35-1.67.23-3.32.48-4.91.82-1.56.52-3.11,1-4.59,1.6a31.4,31.4,0,0,0-8.06,4.13,37.06,37.06,0,0,0-3.41,2.34l-2.72,2.72a29.35,29.35,0,0,0-4.35,4.93c-1.08,1.62-1.9,3.14-2.56,4.34-1.32,2.44-.32,3.33,2.14,2.27,1.22-.55,2.7-1.15,4.23-2s3.58-1.19,5.45-2a31.37,31.37,0,0,1,6.24-1.9,36,36,0,0,1,6.77-1.42c1.18-.14,2.34-.36,3.52-.58,1.21,0,2.43,0,3.65-.09a53,53,0,0,1,7.43.15c2.5.12,5,.62,7.55.91,2.48.61,5,.88,7.45,1.6,4.93,1.06,9.54,2.65,13.74,3.76C773,319.46,776.45,315.4,769.41,309Z"/><path id="_Path_64" data-name="&lt;Path&gt;" class="cls-20" d="M755,302.88a46.52,46.52,0,0,0-16.18-4.54l-1.72,0c-.93,0-1.86-.06-2.79-.06a18.47,18.47,0,0,0-3.84.32l-.45.08c-1.34.19-2.76.4-4.1.67l-.09,0c-1.3.43-2.58.85-3.82,1.33l-.5.17c-1,.29-.25.69,1.22.58.92-.11,1.83-.29,2.75-.46a9,9,0,0,1,1.37-.14c1,0,2.08,0,3.1-.07.82-.08,1.67-.13,2.6-.13,1.19,0,2.4.07,3.62.15l2,.11a55.09,55.09,0,0,1,5.56.6c.84.13,1.68.25,2.52.35a7.39,7.39,0,0,1,.82.14c.94.23,1.88.41,2.82.58a46.63,46.63,0,0,1,4.69,1C755.7,303.83,756,303.34,755,302.88Z"/></g></g></svg>